<svg version="1.2" xmlns="http://www.w3.org/2000/svg" viewBox="0 0 596 687" width="596" height="687"><style>.a{fill:#fff}.b{fill:#e3ecf6}.c{fill:none;stroke:#bcbd43;stroke-linecap:round;stroke-linejoin:round;stroke-width:.4}.d{fill:none;stroke:#ccc;stroke-linecap:round;stroke-linejoin:round;stroke-width:.4}.e{fill:none;stroke:#8ca2c0;stroke-linecap:round;stroke-linejoin:round;stroke-width:.6}.f{fill:none;stroke:#666;stroke-linecap:round;stroke-linejoin:round;stroke-width:1.2}.g{fill:none;stroke:#8ca2c0;stroke-linecap:round;stroke-linejoin:round;stroke-width:1.2}.h{fill:#666}.i{fill:none;stroke:#ccc;stroke-linecap:round;stroke-linejoin:round;stroke-width:.6}</style><path class="a" d="m151.2 341.5l-5-4.5h0.1l-0.1-0.1 2.2-0.6 6.1 3.8z"/><path class="a" d="m143.5 334.7l2.6 2.4-0.8 0.1-0.7 0.3z"/><path class="a" d="m156.3 354.3l1.1 8.3-1.5 3.6-7.2-12.5 1.9-3.1z"/><path class="a" d="m115.7 284.6l0.2 3.5-6.8-6.5 2.1-2.6 1.1 3.5z"/><path class="a" d="m74.5 256.7l-4.4 1.3-3.6-1-0.9-3.8 3.2-0.4z"/><path class="a" d="m569.3 583.2l4.6 6.4 4.2 29.1-6 13.4-0.1 7 0.1 0.3-3.6 1.9-4.4-0.6-4.1-12.3-2.9-1.3-0.7-3.6-6.7-6.6-6.7-3.8-1.4-3.9-15.3-2.4v-0.2l4.4-5.6-0.3-3.9 2.5-3.2 3.2-0.3 0.9-3.2 12-4.8 4-5.4 9.6 1.5-0.5-19.6 2.7-2.3 3.2 1.2 1.9 10.3z"/><path class="a" d="m541.6 609.2l1.4 3.9 6.7 3.8 6.7 6.6 0.7 3.6 2.9 1.3 4.1 12.3 4.4 0.6 3.6-1.9 0.8 9.4-2.4 6.1-2.9 2.2 3.7 0.3-6.6 16.6-3.4-1.4-1.4-3.1-12.6-3.9-5.3-4.9 0.2-3.4 5.5-3.7-10.7-2.1 3-7.9-1-6.4-8.1 2.8 3.3-9.4 2.9-1.8-8.8-4.9-1.2-6.2 5.8-4.2-4.3-4.8-2.9 1.2 0.6-3.1z"/><path class="a" d="m492.5 184.2l4.6 5.4 6.5-0.8 1.2-3.1 6-2.2 2.7 1.9 6.8-1.1 5.9-4.2 1.8 2.9 6.8 1.9 11.9-8.6 1.7-0.5-1.4 11.3 5.8 2.5-1.2 1-4.7 15.3-5.3 8.7-0.1 7-3.1 2.6-1 0.8-9.4-7.5-5.7 2.5-5.5-4.1-6.4 1.9-7.9-4.8-9.1 6.4-1.5-2.8-3 1.2-0.2-3.6-6.2-5.2 2-9.6-14.4-10.7 2.7-2.7 7.8-3.8 3.4 0.6 2.2-2.6 6.4 0.7z"/><path class="a" d="m447.2 152.3l-1.3 6.6 3.6 5.1 0.5 4.6-9.6 2.5 2.5 2.7-2.6 2.6 0.8 3.2h-5.3l-3.7-1.3-2.8 1.7c-2.2-0.8-4.2-1.7-6.4-2.5l-2.9-2.3-0.4-6.8-3.5-0.6-7.3 1-10.6 8.5v3.7l-10.1-1.3-3.7-5-2.9-1.9-3.9-9.3 2.9-2.5 0.5-2.3 8.6-11.5-2.8-1.4 1-3-1.9-2.8 6.1-2.5-3.6-9 1.4-3 9-4.5 6 2.1 1.1-3.2 7.5 1.1 11.1 7.5 22.5 2 2.5 10.1-1.1 4.6 2.9 1.5-0.7 4.4z"/><path class="a" d="m435.1 183.4l2.7 5.9 6.3 3.3 0.6 11.1-0.2 3.1-6.2 2.8 0.1 5.4-4.3-0.6-5.2 4.4-6.9 1.1-2.5 2.2-3.3-1.6-14.1 1.8-5.7-12.3-4-4.6-2.2 2.5-2.9-9.3-5-6.3-4.1-1.6-0.4-9.6 3.3-0.9 3.3-5.5 3.7 5 10.1 1.3v-3.7l10.6-8.5 7.3-1 3.5 0.6 0.4 6.8 2.9 2.3c2.2 0.8 4.2 1.7 6.4 2.5l2.8-1.7 3.7 1.3z"/><path class="a" d="m440.3 176.4l2.6-2.6-2.5-2.7 9.6-2.5 3.8 5.8 19 11.6-2.7 2.7 14.4 10.7-2 9.6 6.2 5.2 0.2 3.6 3-1.2 1.5 2.8 0.2 1.7-2.5 3.6-3.2-0.5-2.4 2.8-0.3 9.3-3.5 1.2-2.5-2-7.3 4.3-1.4 2.8-5.4 2.2v-3.2l-3.3-1.8-10.4-2.2-2.6-5.4 3.2-2.7-1.2-3.5-2-2.5-3.3-0.3 0.4-3.2-2.9-1.2-0.6-3-4-0.8-0.1-5.4 6.2-2.8 0.2-3.1-0.6-11.1-6.3-3.3-2.7-5.9 0.7-3.8h5.3z"/><path class="a" d="m452 229.5l-3.2 2.7 2.6 5.4 10.4 2.2 3.3 1.8v3.2l5.4-2.2 3.1-1.8 2.3 3.4 0.2 3.6-5.3 4.5 2.9 1.7 4.4 9.1-1.3 1.5-2 9.3-7 7.5-1.2 4.6-16.9 1.6-9.9 4.8-6.2-7.1-6.2-2.1-1.5-3-6.4-1.9-2.7-2.8v-1l0.4-3.6-4.2-1.3-1.4-6.8h0.1l-1.4-3 1.5-9.1 7.5-11.7-2-2.5 3.2-2.4 0.4-4.2-3.5-4.4 2.1-3.4 2.5-2.2 6.9-1.1 5.2-4.4 4.3 0.6 4 0.8 0.6 3 2.9 1.2-0.4 3.2 3.3 0.3 2 2.5z"/><path class="a" d="m481.7 237.5l3.5-1.2 0.3-9.3 2.4-2.8 3.2 0.5 2.5-3.6-0.2-1.7 9.1-6.4 7.9 4.8 6.4-1.9 5.5 4.1 5.7-2.5 9.4 7.5-2.6 6.3 2.8 11.1h-0.1l-6.7-0.8-0.5 3.1-3.6 0.5-2.1 2.4-3.1-0.9-6.3 2.1-3.3 5.3-25.1 11.5-6.1-0.1-2.6-2.4-4.4-9.1-2.9-1.7 5.3-4.5-0.2-3.6-2.3-3.4-3.1 1.8 1.4-2.8 7.3-4.3z"/><path class="a" d="m590.8 153.1l-11.8 15.4-1.6 17.6-6.6 15.3-4.6-2.2-0.4-3-9.5-6.4-3.5-0.2-5.8-2.5 1.4-11.3-2.1-1.4 3.9 0.3 2.5-1.9 3.4-15-5-3.8-3.1-0.4-1.6 2.8-2.6-1.8 1.8-2.8-6.1-2.8 5.5-12.1 1 3.1 10.1 5.2 10.1-0.3 1.6-2.9 1.5-4.7v-0.1l16.3 0.6 9.6 3.4z"/><path class="a" d="m570.7 201.7l2.2 11.6-3 17.3 3.2 8.7-2.5 2.3-0.2 3.5-3.3 0.1-0.5 3.5-3 1.1-8.6-0.1 0.9-3.3-3.3-0.7 0.4-0.2-2.4-5.7-3.1 0.2-0.5-10.1-8.6-5.7 3.1-2.6 0.1-7 5.3-8.7 4.7-15.3 1.2-1 3.5 0.2 9.5 6.4 0.4 3 4.6 2.2z"/><path class="a" d="m538.4 224.2l8.6 5.7 0.5 10.1 3.1-0.2 2.4 5.7-4.4 0.5v0.2h-0.3l-4.1 4.5-1.3-2.5 1.5-2.8-6.8-3-2.8-11.1 2.6-6.3z"/><path class="a" d="m544.7 332.5l-2.6 6.9 8.8 8.3 3.7 5.2-1 3.5-9.3 9-0.2 0.2v0.2l-2.5 1.7-6.8-2.5-2.5-2.1 0.6-3.4-2.8-1.8-10.5 15.7-5.2-4-3.6-1-3 1.8-3.3-1.9-1.4-2.8-3.1-1-3-7.5v-0.1l-0.9-10.4h3.3l3.1-3.3 7.5-1 7.9-6-2.7-3.5 3.1-6.5 4 1.6 5.6-4.7 9.4-0.6 3.8 0.7-0.5 3.2z"/><path class="a" d="m532.3 362.9l2.5 2.1 6.8 2.5 2.5-1.7 0.5 3.4 3.3 3 6.2 2.5-0.7 3.5 2.4 6.2 8.3 5.8-3.2 5.7 1.3 3-2.2 4.1-21.7 9.3-6.8 1.4-2.2 2.2-8.8-3.9-5.7-1.7-1.2-6.1 2.6-6-3-7.2-10.6-2.3-0.4 3.1-6.9-0.2-7.3-11.9 6.4-7.5 2.6-15.2 3 7.5 3.1 1 1.4 2.8 3.3 1.9 3-1.8 3.6 1 5.2 4 10.5-15.7 2.8 1.8z"/><path class="a" d="m466.6 286l0.5 3.4 9.2 4.9-5.6 4.2 2.8 1.8 2.5 9.7-3.2 5.6 0.9 6-3.1 1.2-5.4-3.7-6.1 1.4-6.6-1.6-6.6 23.4-6.4-8.6-1.8 2.6-2.8-1.7-2.5 1.9-2.4-2.1-2.7 2.2-0.3 3.3-6.4 4.4-2.4-2.4-8.9 1.6-5.8-3.6v-3.4l4.1-5.2 0.6-6.1-1.9-2.7-8.8-3.3-7.5-15.2 7.8 3.2 12.7-6.5-0.8-3.1 2.2-2.5-4.5-7.7 2.3-2-0.3-6.6 3.2-1.1 2.9-1.9 1.3-0.3 2.7 2.8 6.4 1.9 1.5 3 6.2 2.1 6.2 7.1 9.9-4.8z"/><path class="a" d="m475.4 331.5h3.3l0.1 3.4 3.3-0.2 4.5-4.9 3.7 1.8 0.5 3.1 4.4-0.2 6.1-3.6 5.3-7.4 3.9 2.3-1.4 7.8-6.3 4-0.6 5.6v0.1l0.3-0.1-3.1 3.3h-3.3l0.9 10.4v0.1l-2.6 15.2-6.4 7.5-12.5-17-3.2 0.7-3.3 5.8-6.8-2.3-7.2 0.6-4.1-6.4-3.2 0.6-3.5-10.4 1.7-9 6.6-23.4 6.6 1.6 6.1-1.4 5.4 3.7z"/><path class="a" d="m455 367.5l7.2-0.6 0.4 8-2.9 5.6-7.7 1.7-2.8 2.8 2.1 2.8-5 4.4-5.1-2.9-1-3.3-6.6-2.4-5.2-4.7-1.3-3.3 1.4-2.8-2.5-1.9 1.9-6.5-5.8-7.6 1.8-9.7 5.4-3.8-2.3-3.4 0.3-3.3 2.7-2.2 2.4 2.1 2.5-1.9 2.8 1.7 1.8-2.6 6.4 8.6-1.7 9 3.5 10.4 3.2-0.6z"/><path class="a" d="m502.2 391.8l0.4-3.1 10.6 2.3 3 7.2-2.6 6 1.2 6.1 5.7 1.7-1.7 4.3 2 4.6 4.9 3.5-0.4 6.6-3.5-1.2-14.2 4.3-1 3.1-6.1 1.4-1.1 3.5-6.6-1-6.1-4.4-3.3 0.6-1-19.6-3.4 1.8-9.2-2.2-3 1.2 1.2-7-3.7-8.8-5.5-3-10 3.5-2.4-4.8 0.1-5-0.2-1.2 5-4.4-2.1-2.8 2.8-2.8 7.7-1.7 2.9-5.6-0.4-8 6.8 2.3 3.3-5.8 3.2-0.7 12.5 17 7.3 11.9z"/><path class="a" d="m531.5 413.7l6.8-1.4h0.1l2.5 5.9 3.1 0.1 1 7.4 5.8 3.7 6.8 0.4 4.3 10.5-4-0.1-2.1 2.4-0.1 0.1-0.1 0.2-6.7 3.7-10.2 11.5-12.4-3.8-4.2 4.7-0.8 4.3-3.9-5.1-3.8 0.9-5.9 4.5-1.6 9.7-4.4-1.3 3.9 5.5-4.2-1.2-6.7 1.6 0.2-5.3-11.2-6.3-1.7-3.1 3.6-5.6 4.7 1.6 2.8-2.9-3.4-2.5 2.8-7.6 6.5-0.4 0.4-3.7 1.1-3.5 6.1-1.4 1-3.1 14.2-4.3 3.5 1.2 0.4-6.6-4.9-3.5-2-4.6 1.7-4.3 8.8 3.9z"/><path class="a" d="m441.2 389.3l5.1 2.9 0.2 1.2-0.1 5-5.5 3.1-3.7 5.4-3.8 0.9-2.5-2.6-3 1.1-0.8-6.1-6.7-2.6-7 3.4-3.2 0.4-2.5-2.2-3.1 0.9 3.3-8-3-8.4-5.2-4.3-5.2-8.6 2.4-7.1-2.8-3.1 6.1-5.3-1.7-14 0.6-3.4 4.4-1.4v3.4l5.8 3.6 8.9-1.6 2.4 2.4 6.4-4.4 2.3 3.4-5.4 3.8-1.8 9.7 5.8 7.6-1.9 6.5 2.5 1.9-1.4 2.8 1.3 3.3 5.2 4.7 6.6 2.4z"/><path class="a" d="m449.3 414.7l4.2 12.7-1.6 6.9-3.9 5.1 1 8-3.4 6.6-2.3 16.1 0.1 4.2-6.7-3.8h-3.1l-2.9 2.5-0.1-3.6-7.9 5-8.8-5.7-3.1-6.7-4.7-9.3-2.3-10.1 7.5-7.3 6.6-2 3.8-6.6 3.9-0.5-0.8-3.2 3-2.5 1.6-5.9 2.9 1.3v-3.4l1.1-4.7 3.8-0.9 3.7-5.4 5.5-3.1 2.4 4.8z"/><path class="a" d="m429.4 414.6l-1.6 5.9-3 2.5 0.8 3.2-3.9 0.5-3.8 6.6-6.6 2-7.5 7.3-10.2-8.7-3.1-0.3-0.2 3.3-7.2-1.4-1.7-6.4-2.5-1.9-3.9-9 3.7-0.2-2.9-1.3-3.7-9.8-6.1-1.6-0.1-4.5 10.8-3.6 9.5 0.1 5.9 3.6 12.5-0.8 3.1-0.9 2.5 2.2 3.2-0.4 7-3.4 6.7 2.6 0.8 6.1 3-1.1 2.5 2.6-1.1 4.7v3.4z"/><path fill-rule="evenodd" class="a" d="m458.8 399.7l5.5 3 3.7 8.8-1.2 7 3-1.2 9.2 2.2 3.4-1.8 1 19.6 3.3-0.6 6.1 4.4 6.6 1-0.4 3.7-6.5 0.4-2.8 7.6 3.4 2.5-2.8 2.9-4.7-1.6-3.6 5.6 1.7 3.1 11.2 6.3-0.2 5.3-1.1 0.3-2.7 0.1-4.8 5.3-5.8-2.5-0.1-3.3-10.5-0.9-0.6-6.4-2.8 2.4-2.7-1.6-9.8 4.4-3.9-4.8-6.6-0.8 2.3-16.1 3.4-6.6-1-8 3.9-5.1 1.6-6.9-4.2-12.7-0.5-11.5zm-4.1 69l2.3 2.5 4.5-1.3 2.7-4-5.1-3.1-3 2.5z"/><path class="a" d="m464.2 465.9l-2.7 4-4.5 1.3-2.3-2.5 1.4-3.4 3-2.5z"/><path class="a" d="m443.3 470.1l6.6 0.8 3.9 4.8 9.8-4.4 2.7 1.6 2.8-2.4 0.6 6.4 10.5 0.9 0.1 3.3 5.8 2.5 2.5 6.1-1.4 3.4 4.2 5.9-1.9 2.8 3.8 1.1 6.9 6.8-0.2 0.4-7.5 4.7-3.6 0.3-13.5-5.3-3.9 0.7-5.1-2.6-6.1-6.4-11.7-3.3 5.1-5.5-7.1-7.2-0.2-6.2-3-5z"/><path class="a" d="m446.6 485.5l7.1 7.2-5.1 5.5-4.4 4.7-2.2 11.9-3.6-1-4.8 5.4 1.2 3-6.5 2-4.3 6.7h-0.3l-3.3-0.8-3.2-5.4v-0.1l4.6-6.2-1.6-3.3-6.9-7.5-3.4-0.3-0.2-3.3-7.6-1.6 1-3-2.1-3-4.4 0.7-4.7 4.4-0.2 3.2-5.9-2.8-2.5 1.8-0.4-3.2-3.2-0.1v-0.1l-0.4-1.6 4.9-5.9-9.5-4.6 3.1-1.3 2.3-4.4 8.8 3.9 4.3-0.6 0.2-3.8 9.8 2.6 7-2.1-1.6-3.3 1.4-3.3-4.5-8.6 4.1-3 1.2-2.3 3.1 6.7 8.8 5.7 7.9-5 0.1 3.6 2.9-2.5h3.1l6.7 3.8 3 5z"/><path class="a" d="m505.6 477.5l-3.9-5.5 4.4 1.3 1.6-9.7 5.9-4.5 3.8-0.9 3.9 5.1 0.8-4.3 4.2-4.7 12.4 3.8 10.2-11.5 6.7-3.7-1.5 6.6-2.5 2.1 4.4 6.1-2.1 5.5 0.2 0.2-6.9 7.7-2.2 6 4.8 9.6 7.8 8.7-5.9-0.8-5.8 4.3 1.4 2.9-3.4 1.7-10.9 0.4-1.4 3.9-6.6-4-11.4 9.6-4.5-5.5-3 2-5.9-0.2-6.9-6.8-3.8-1.1 1.9-2.8-4.2-5.9 1.4-3.4-2.5-6.1 4.8-5.3 2.7-0.1 1.1-0.3 6.7-1.6z"/><path class="a" d="m408.3 60.8l3.2-0.7-2.3 7.2 3.4 6-3.6 6.8v-0.1l-17.6-4.7-5.8 2-2.7-1.9-2.9 2.5-14.1 0.6-3.7-2.9 4-12-2.1-2.6-3.3-0.4 0.7-3.1-4.3-5.9 3.5-1.8-4.4-5.9-6.6-1.1 1.1-6.8-1.4-2.9-1.9 2.5-13.1-0.5-4.6-4.7 0.8-3.2-6.2-2.9-7.5-14.4 18.2-4.5 3.2 1.9 2.8 6.7-1.1 6.5 1.4 3h3.7l3.2 5.8 3.4 1.5 6.2-4.3 6.6-0.6 4.3 5-0.5 3.3 3.5 9.5 3.5 1.3 3.3-2.5 1.2 3.1 6.1 1.4 2.5 10.2 2.4-2.2 6.2 1.5 6.8-1.3z"/><path class="a" d="m380 77.9l2.9-2.5 2.7 1.9 5.8-2 17.6 4.7-0.2 0.4 4.2 1.3 0.3-0.1 1 6.5-1.6 3.9 1.6 3.5-5.7 8-3.1 0.4 0.4 16-1.1 3.2-6-2.1-9 4.5-1.4 3 3.6 9-6.1 2.5 1.9 2.8-1 3 2.8 1.4-8.6 11.5-10.4-6.7-4.4-4.7 0.7-3.2-2-2.8-3-0.8 2.5-1.9-0.6-3.1-3.3-1.3-2.6 1.7-0.9-3.3 3.4 0.4-3.2-5.3 2.9-1.7 2.7-6.5 2.9-1.3-2.5-2 0.9-5-0.4-11.5-2.6-7.9 4.3-9.1 0.5-4.2z"/><path class="a" d="m363.7 99.7l0.4 11.5-0.9 5 2.5 2-2.9 1.3-2.7 6.5-2.9 1.7 3.2 5.3-3.4-0.4 0.9 3.3 2.6-1.7 3.3 1.3 0.6 3.1-2.5 1.9-9 3.3-2.9-1.8-2.2 2.5-7.8-1.2-12.1-7.2-2.6 1.9-10.3-2.5-7.1 2-6.3-1.2-1.7-3.7 4.4-2.9-3.9-9.4 1.5-9-1.5-9.8 3.4-5.3v0.1l4.6 4.1 3.6-1.3 16.1 2.4 14.4 7.6 9.6-7.7z"/><path class="a" d="m236.8 127.9h3.2l-2.5 2.3 3 10.5-1.6 3.4 2.7 4.6-0.8 2.5-6.3-1.1-7.9 1.9-8 6-3.3 0.4-6.5-1.3-2.8 2-5.6-3.4-7.1 2.6-3.1-1.4-1 2.9-6 3.3-10.9-2.3-2-2.8 5-5.9-1.7-2.6 9.1-5.5-2.5-9.2 2.2-2.9-9.4-3.4-0.7-7.5v-0.1l5.8-2.6 10.7 3.8 14 1.5 9.5 4 10.8-3 5.5-4.8 7.7-1.7h0.1z"/><path class="a" d="m238.2 117.4l-0.2-0.1 7.4-2.9 8.5 5.6 3.8-0.9 5.5 3.4-2 2.7 2.3 2.4 6 2.6 1.6-2.9 9.2-2.8 5.4-8 14.7 3.8 3.9 9.4-4.4 2.9-4.5 10.7-4.3-0.1-2.5 2.9 1.9 6.5-6.7 7.8 0.3 3.1-6.8 1.5-3.2-1.8-5.9 3.6-6.8 1.2-2.6 2.9-3.9-2.3 2-2.6-8.8-10.6-7.1-0.6-0.2-3.6 0.8-2.5-2.7-4.6 1.6-3.4-3-10.5 2.5-2.3h-3.2l-0.4-9.8v-0.1z"/><path class="a" d="m228.1 115l-1.9-2.5 6.5-14.1 15.9-8.7 24.8-6.1 12.2-8.5 0.3-0.3 14 12 3.9 9.4-3.4 5.3 1.5 9.8-1.5 9-14.7-3.8-5.4 8-9.2 2.8-1.6 2.9-6-2.6-2.3-2.4 2-2.7-5.5-3.4-3.8 0.9-8.5-5.6-7.4 2.9z"/><path class="a" d="m340 143.3l0.3 2.3-1.9 2.6h-0.1c-0.8 0.5-1.6 1.1-2.3 1.6-1 0.7-2 1.4-3 2.2l-2.9-1.3-3.7 1.5-4 2.9h-0.1l-6.1-6.8-10.2-4.1-10.6-0.9 4.5-10.7 1.7 3.7 6.3 1.2 7.1-2 10.3 2.5 2.6-1.9z"/><path class="a" d="m295.4 143.3l10.6 0.9 10.2 4.1 6.1 6.8-2.2 3.5 3.5 5.8-7.9 6.1-1.7 2.9 0.7 3.2-5.2 9.7-3.5 0.8-2.5-2.5-1.4-6.3-6.9-6-0.6-12.2-4.1-7.5-1.9-6.5 2.5-2.9z"/><path class="a" d="m290.5 152.6l4.1 7.5 0.6 12.2 6.9 6 1.4 6.3 2.5 2.5 3.5-0.8 3.1 11.9h0.1l-0.6 1.7-5.4 12.2-9.5 0.6-6.8 3.2 0.3 3.1h-0.1l-3.7-2.1-6.1 3.9-14.4-12.1-7.1 1.5 0.5-2.1-2.4-4.2-1.2-8.5 8.4-5.7-0.5-5.2 0.1-5.1-5.3-4.8-0.1-3.7 2.6-2.9 6.8-1.2 5.9-3.6 3.2 1.8 6.8-1.5-0.3-3.1z"/><path fill-rule="evenodd" class="a" d="m330.1 150.7l2.9 1.3c1-0.8 2-1.5 3-2.2 0.7-0.5 1.5-1.1 2.3-1.6l1.9 5.8-1.5 2.8 1.5 5.3v0.1l0.3 3.3-1.2 4.6-2.6-2.6-3.1 1-9.9-4.1h-0.1l-3.5-5.8 2.2-3.5h0.1l4-2.9zm-5.2 6.8l3.4 4 5.9-0.1-2-2.1v-0.1l-0.8-3-3.6-0.6z"/><path class="a" d="m333.6 168.5l3.1-1 2.6 2.6 0.5 1-4.4 19.5-3.8 5.3-4.2-0.6-3.1 1.9-1.7-3-2.2 3.2-7.7 0.8h-0.1l-3.1-11.9 5.2-9.7-0.7-3.2 1.7-2.9 7.9-6.1h0.1z"/><path class="a" d="m248.1 155.4l8.8 10.6-2 2.6 3.9 2.3 0.1 3.7 5.3 4.8-0.1 5.1 0.5 5.2-8.4 5.7 1.2 8.5-3.6-0.8-3.5-4-3.2 1.2-8.2-5.6-1.7-9.5-3.1-1.7-12.4 6.6-3.4-0.1 0.1-0.1v-3.3l-3.7-1.7-2.2-6.7-3-0.3-0.8 3.1h-10.2l-7.6 3.6-2.8-1.9-2.7 1.8-3.7-4.1 4-5 2.1-7.6-4.6-4.7 6-3.3 1-2.9 3.1 1.4 7.1-2.6 5.6 3.4 2.8-2 6.5 1.3 3.3-0.4 8-6 7.9-1.9 6.3 1.1 0.2 3.6z"/><path class="a" d="m257.1 212.5l1.9 2.6 0.4 6.2-7 11.9-3.6 1.2-0.7 3.9v0.1l-8.6 5-3.2-0.3 0.6 3.6-6.9-2.9h-8.3l-5.8-3.7-3.5 1.4-2.3-2.2-0.2-3.9-7.5 0.1-0.6-3h-0.1l-1.7-6.2 6.2-8.7-1.6-3.9 5.6-5.1-1.4-3.3 5-4.4-0.3-7.8 4.8-3.1 3.4 0.1 12.4-6.6 3.1 1.7 1.7 9.5 8.2 5.6 3.2-1.2 3.5 4 3.6 0.8 2.4 4.2-0.5 2.1z"/><path class="a" d="m266.4 208.7l14.4 12.1 6.1-3.9 3.7 2.1 2.8 8.1-1.9 3.4 1.9 6.4 3.4-1.4 2.6 1.6 1.3 4.2 3.3 0.7 2-2.5 17.1 1.7 0.9 3-5.6 2.6 5.8 8.6-6.6 4.6 2.3 6.6-10.9 2.3-0.7 3.1-3.2-0.1-5.8-3.9-7.1 1-1.8 2.9-2.7-1.4-6.8 3.6-4.7-7.5-3 1.4-2.6-2.1 1.3-10.2-3.8-5.8 0.8-3.1-6.8-3.7-2.5 2 0.3-6.1-11.8-0.6v-0.1l0.7-3.9 3.6-1.2 7-11.9-0.4-6.2-1.9-2.6 2.2-2.3z"/><path class="a" d="m332.3 199.3l4.7 4.8-0.6 3.1-2.9 1.7 10.3 0.8 12.5-3 7.6 8.4 0.4 6.5-5.2 5.5 1.3 3.3-1.8 2.6-5.9 3.8 3.3 3.1 2.5 7.8-3.1 0.8-1.7 2.7-10.2 1.8-4.3-5.3-15.2-3.5-0.9-3-17.1-1.7-2 2.5-3.3-0.7-1.3-4.2-2.6-1.6-3.4 1.4-1.9-6.4 1.9-3.4-2.8-8.1h0.1l-0.3-3.1 6.8-3.2 9.5-0.6 5.4-12.2 0.6-1.7 7.7-0.8 2.2-3.2 1.7 3 3.1-1.9 4.2 0.6z"/><path class="a" d="m370.6 152l10.4 6.7-0.5 2.3-2.9 2.5 3.9 9.3 2.9 1.9-3.3 5.5-3.3 0.9 0.4 9.6-17.2 3.4-0.3 6.5-4.4 6.1-12.5 3-10.3-0.8 2.9-1.7 0.6-3.1-4.7-4.8-0.7-3.4 3.8-5.3 4.4-19.5-0.5-1 1.2-4.6-0.3-3.3v-0.1l-1.5-5.3 1.5-2.8-1.9-5.8h0.1l1.9-2.6-0.3-2.3 7.8 1.2 2.2-2.5 2.9 1.8 9-3.3 3 0.8 2 2.8-0.7 3.2z"/><path class="a" d="m378.2 190.7l4.1 1.6 5 6.3 2.9 9.3 2.2-2.5 4 4.6 5.7 12.3 14.1-1.8 3.3 1.6-2.1 3.4 3.5 4.4-0.4 4.2-3.2 2.4 2 2.5-7.5 11.7-1.5 9.1 1.4 3h-0.1l-6.2 0.5-1.6-3.2-3.1 1-1.1-4.1-6.5 1-6.2-3.3-4.3-6.3-5.2 4.7h-6.7l-8.4-5.3h-3.8v-0.1l-2.5-7.8-3.3-3.1 5.9-3.8 1.8-2.6-1.3-3.3 5.2-5.5-0.4-6.5-7.6-8.4 4.4-6.1 0.3-6.5z"/><path class="a" d="m113.6 166.1l1.1 3 3.5-1.6 1.1 3.5 4.5-0.4 0.1-2.1h0.2v1.8l1.7 2.7 3.2 0.3 0.1 0.2 2.6 2.1-0.3-0.5 0.4 0.3 0.1 6.3-1.8 10.1-10.1 2.9-5.5 7.9-3.2 1.3-1.7-3.2-4-0.9-6.9 8.4-2.1-6.7-3.3 1-14.5-7.3-8.8 3.4-14.1-3.7 2.3-4.7-2.8-10.3 2.8-9.4-4-5.2-0.2-3.2 3.5-0.5 0.3-6.9 5.1-4.2 1.6 2.8 10-4.1 0.6 4 5.3-3.6-1.5 7.4 1.9-3.4 3.4-0.3-0.7 3.2 3.3 0.6 5.1 8.9v3.5l4.6 2.9 1 4.1 12-10z"/><path class="a" d="m129 173.3l-3.2-0.3-1.7-2.7v-1.8h3z"/><path class="a" d="m58.2 170.5l-2.8 9.4 2.8 10.3-2.3 4.7-7.7 3.6 0.6 4 3.8 6.1 9.1 1.5 0.1 6.1-2.8 3.2-3.1-1-0.3 3.5-4.2 1.7-3.2-0.8 0.7-3.1-2.9 1-0.5-3.2v3.2l-3.1 0.7-5.3-6.6-5.2 1.8-3.3-2.2 0.3-3.5 1.9-0.2-1.6-3.2-0.3 3.4-1.2 0.2 0.9 3.3v0.5l-4.1 4.6-8.3-0.7 1.3-6.1-4.2-7-10.7-4 1.7-2.8 14.1-1.4 2.8 1.5 1.8-2.8-1-3.6-6.1-3.6-3.1-0.2-2 3-2.7-5.8 1.7-4.1 1.9 2.7 6.5 1.3 4.2-1.2 1.5 2.8 6.7 1.6-7-3 3.5-0.7-3.3-1.4 0.5-3.3-6.7 1.6 0.6-3.8 4.2-2-13.8 4.2-3-1.4-3 1.3-2-2.6 1.5-10 2.2-2.8 9.4 0.9-2.9-1.5 11.4-6.1 1.7 2.9 16.2-4.8 0.1 7.3 1.8-3.6 2.5 3 0.7-3.8 3.2-0.7 5.4 3.3h0.2l0.2 3.2z"/><path class="a" d="m93.3 202.5l3.3-1 2.1 6.7 6.9-8.4 4 0.9 1.7 3.2 3.2-1.3 1.2 4.9 4 0.1-3.9 1.1 0.6 3.2 5.7 3.1 1.2 2.8-1.7 2.9 2.7 2-1.1 3.6-2.7 2.3 3.1 1.8-3.3 0.8 1 6.4-0.4 6.8-17.2 5.1-1.8-2.9 3.4-0.2-3.1-1.8-13.9 1.2-5.4-4.3 7 0.9 2.3-2.7-2.4-2.8-4.1-0.6-1.7 2.8-3.5-5.4 1.4 6.6-2.7-2.1-3.6 0.9-3.1 2.7 1.4 3.2-2.4-2.6 0.8-4.2-2.3-3.1-0.3-3.2 2.7-1.4-3 1.4-4.1-1.8-1.7-2.9 2.4-2.4-3.3-0.7-0.7-3.4 0.5 6.6-3 1.5-2.8-1.7-0.8-8.7 3.1 1 2.8-3.2-0.1-6.1-9.1-1.5-3.8-6.1-0.6-4 7.7-3.6 14.1 3.7 8.8-3.4z"/><path class="a" d="m142 233.3l1.8-3.1 10.1-4.4 7.6 3.9 8.3 15-3.2-0.4-2.1 2.7 9.6 3.7 0.3 6.6-16.1 2.4-3.2 2.5 3.4 0.9 4 5.3 0.9 3.1-3.1 5 3.1 1.6 0.4 3.3-5.4-3.9-1.7 2.7-3.5 0.9 0.5 3.3-2.7 2.4-2.6-1.9v-3.6l-3.8 0.3-0.3 10.7-13.1-5.6-6.8-7-5.4-5.6-6.6-2.4 3.4-1.5 0.7-7.4 7.6-2.9-8.1 0.7-5.6 4.1-2.3-2.3-6.8-1.1-2.6-7 5-4.8 17.2-5.1 0.4-6.8 5.9-3.8z"/><path class="a" d="m214.7 184.9l3.7 1.7v3.3l-0.1 0.1-4.8 3.1 0.3 7.8-5 4.4 1.4 3.3-5.6 5.1 1.6 3.9-6.2 8.7 1.7 6.2-5.7-2-6.6 3.2-3.4-0.5-9.8-4.1-2.4 2.2-11.7-3.9 4-9.7 6.2-2.5-2.2-19.5 1.8-2.6 0.1-13.7 9.6 1h0.1l3.7 4.1 2.7-1.8 2.8 1.9 7.6-3.6h10.2l0.8-3.1 3 0.3z"/><path class="a" d="m176.2 229.1l9.8 4.1 3.4 0.5 6.6-3.2 5.7 2h0.1l0.6 3 7.5-0.1 0.2 3.9 2.3 2.2 3.5-1.4 5.8 3.7h8.3l-0.8 2.8-1.9 10.4-6.5 17.2h0.1l-7.5 6.8-2.5-2.7-10.9 0.3-6.3 0.9-4.1 5.3-13.8 0.9-12-4.3-0.4-3.3-3.1-1.6 3.1-5-0.9-3.1-4-5.3-3.4-0.9 3.2-2.5 16.1-2.4-0.3-6.6-9.6-3.7 2.1-2.7 3.2 0.4-8.3-15 0.6-2.3 11.7 3.9z"/><path class="a" d="m210.9 278.3l2.5 2.7 3.8 10-0.9 3.4 3 1.3-5 15.8 3-0.9 1.7 3.4-3.9 6.2 0.7 6.5 2.3 2.2v3.2l7.1 0.2-3.6 9.5 5.1 3.4-1 3.2h-0.1l-0.8 0.8-4.1-0.5-6.4 2.9-0.3 3.3-3.1 1.8-4-5.2-19.6-7.6-6.6-7.3v-4.2l10.2-5-2.8-2.2 0.3-8.3-5.4-20.2-4.7-4.6-2.5-6.4 13.8-0.9 4.1-5.3 6.3-0.9z"/><path class="a" d="m148.4 281.3v3.6l2.6 1.9 2.7-2.4-0.5-3.3 3.5-0.9 1.7-2.7 5.4 3.9 12 4.3 2.5 6.4 4.7 4.6 5.4 20.2-0.3 8.3 2.8 2.2-10.2 5-2.7-1.9-7.2 0.3 1.5-3.3-9.9 3.8-3.2-0.5-0.8 3.1-5.3-4.3-6.6-1.3-1.8-3.9-5.4-1.3-9.1-7.5-2.4-7.9-11.7-13.7-0.4-5 8.7-9.3 6.8 7 13.1 5.6 0.3-10.7z"/><path class="a" d="m180.7 332.4v4.2l6.6 7.3 19.6 7.6 4 5.2-3 13-3.1 0.2-2.5-2.3-9.1 3.7 3.6 6.4-2.5 2.3 5.6 3.5 0.3 3.4 2.8 1.8-2 3 1.7 2.9-2.6 1.9 2.5 2.3-1.9 3.4 6.7 1.2 7.1 7.2v0.1l-0.1 0.5-2.3 5.5-10.5-1.1-6.9-4.9-0.6-6.4-7.2-2-0.8-3.1-6.6 0.9v-0.1l-2.3-8.3-11.7-12.6-8.8-5.5-1.5-4.8 5.4-3.7 3.3-6.4-1.8-6 3.1-0.6-4.6-8.9-3.3-1.1 5.1-10.8 9.9-3.8-1.5 3.3 7.2-0.3z"/><path class="a" d="m214.3 351.6l6.4-2.9 4.1 0.5 0.8-0.8h0.1l10.2 3.3 3.3-0.9-1.6-2.7 2.5-2.1 4.6 4.4 4.3-1.6 1.4-2.8 5.4 0.8-0.2 5.7 5.3 4-0.7 3.6-2.9 1.2-4.5 9-3.1 0.6-3.8 4.3v0.1l-6.3 6.9-2.4 5.9-8.8 6.6-0.9 6.5-4.6 6.4-6.1 0.8-2.3 2.2-7.1-7.2-6.7-1.2 1.9-3.4-2.5-2.3 2.6-1.9-1.7-2.9 2-3-2.8-1.8-0.3-3.4-5.6-3.5 2.5-2.3-3.6-6.4 9.1-3.7 2.5 2.3 3.1-0.2 3-13 3.1-1.8z"/><path class="a" d="m212.1 416.7l4.3-0.6 1.3 3.1-3.2 6.1-0.2 6.5-2.3 2.3 11 2.5 2.4-3.6 2.6 2.9-1 3.3 1.1 1.5-3.5-0.2-1.3 2.8-3.1-0.9-1.2 3.6 3.3 1.5-9.6 9.8-0.6 10-3.4 2.6 1.7 2.7-5.1 4.5-2.3-3-1.8 4h-7.2l-0.7-5.3-12.4-8.5 0.5-3.3-19.3 0.8 1.6-5.9-4.2-1.5-8.8 3.9-0.1-5.3 3.6-7.8 7.2 1-0.3-3.2-5-5.8-4.5 8.8 7-56.3 3.3-6.5 1 3.1 12.1 11.9 2.8 8.7 2.4-3.7-0.7-3.1 6.6-0.9 0.8 3.1 7.2 2 0.6 6.4 6.9 4.9z"/><path class="a" d="m237.2 388.1l2.4-5.9 6.3-6.9v-0.1l7 3.4v5.3l10.6-1.2 8 6.3-2.2 3 6.5 2.4 3.1 5.4-4 5.1 2 3.3-2.3 2.1 2.6 1.7 0.2 3.3 3.7 0.9 3.8 7.8-0.7 5.7-1.6 5.9-5.1 3.6 0.8 4-6.9 3.9-5.2 7.2-4.8-4.7-6 3.1-1.7-6.9-6.9 1.2-2.4-2-3.2 2.3-10 0.5-3.1-7.1-1.1-1.5 1-3.3-2.6-2.9-2.4 3.6-11-2.5 2.3-2.3 0.2-6.5 3.2-6.1-1.3-3.1-4.3 0.6 2.3-5.5 0.1-0.5v-0.1l2.3-2.2 6.1-0.8 4.6-6.4 0.9-6.5z"/><path class="a" d="m162.1 461.8l19.3-0.8-0.5 3.3 12.4 8.5 0.7 5.3h7.2l1.8-4 2.3 3 0.5 5.2 13.1 3.2-4 5.9 0.7 2.9-0.3 3.3-2.9 1.4-0.7-3.3-10.5 3 0.6 7.2-4.8 12.4 1.8 3.1-9.7 1.7-3.6-1.3-5.5 2.1-2.3-2.2-2.7 1.7-2.8-2.6-11 2.3-1.9 2.5-2.8-1.7-3 1.6-1.4-3.2-12.3 2.8-5.7-2.7 4.2-7.9 12.4-56.2 8.8-3.9 4.2 1.5z"/><path class="a" d="m223.3 443.3l1.3-2.8 3.5 0.2 3.1 7.1 10-0.5 3.2-2.3 2.4 2 6.9-1.2 1.7 6.9 6-3.1 4.8 4.7-3.8 3.5 3 10.3-8.5 2.2v3.3l2.7 1.5-4.9 6.2 1.5 3.1-3.3-0.3-3.9 5.3-3 1.5-9.7-1.2-5.6 3.3-9.3-0.8-1.6 2.8-4.2-0.7-0.7-2.9 4-5.9-13.1-3.2-0.5-5.2 5.1-4.5-1.7-2.7 3.4-2.6 0.6-10 9.6-9.8-3.3-1.5 1.2-3.6z"/><path class="a" d="m416.8 274.5v1l-1.3 0.3-3 0.3 0.1 1.6-3.2 1.1 0.3 6.6-2.3 2 4.5 7.7-2.2 2.5 0.8 3.1-12.7 6.5-7.8-3.2-6.7 6.8-4.9-4.2-3.2 1.9-7.1-0.1-6.5-7.2 1.5-9.9 0.3-6.6-2.6-2.2-0.3-6.7-3.5-8.5-3-2.4 1.9-6.4-2.2-7.3 1.7-2.7 3.1-0.8v0.1h3.8l8.4 5.3h6.7l5.2-4.7 4.3 6.3 6.2 3.3 6.5-1 1.1 4.1 3.1-1 1.6 3.2 6.2-0.5 1.4 6.8 4.2 1.3z"/><path class="a" d="m354 264.9l3 2.4 3.5 8.5 0.3 6.7 2.6 2.2-0.3 6.6-1.5 9.9h-4.6l-5.3 4.2-9.5 3.3-2.5 2.1 1.9 6-1.9 2.7-9.9 1.1-3.9 6.6v0.1l-5.5-0.2 1.7-4-1-10-5.2-8.8 1.5-3-2.6-2.6 2.8-5.7-2.6-13.1-12.9-1.8 3-6.2 3.2 0.1 0.7-3.1 10.9-2.3-2.3-6.6 6.6-4.6-5.8-8.6 5.6-2.6 15.2 3.5 4.3 5.3 10.2-1.8 2.2 7.3z"/><path class="a" d="m368.1 308.4l7.1 0.1 3.2-1.9 4.9 4.2 6.7-6.8 7.5 15.2 8.8 3.3 1.9 2.7-0.6 6.1-4.1 5.2-4.4 1.4-0.6 3.4 1.7 14-6.1 5.3-4.1-4.7-7.2-0.5-1.4-3.6-14.8-0.5-1.8-2.8-3.7 0.5-5-5 1.4-3.2-2.6-2-12.5 9.1-2.9-1.4-4-9.4c-2.8-1.8-5.5-3.6-8.3-5.5l-1.3-4.3v-0.1l3.9-6.6 9.9-1.1 1.9-2.7-1.9-6 2.5-2.1 9.5-3.3 5.3-4.2h4.6z"/><path class="a" d="m341.5 358.7l-10.4 9.6 5 6.2-2.7 2.7-3.1-0.9-2.5 2.9-12.6-5.8-7.9 3.8-0.7-6.7-5.3-3.3-7.2-0.5-0.1-3.3-3.2-1.6 0.9-3.9-1.9-5.8-7.5-11 3.4-6-1.3-2.9 3.1-3.3 12.9-1.1 2.2-2.8 14.8 3 3-0.9 5.5 0.2 1.3 4.3c2.8 1.9 5.5 3.7 8.3 5.5l4 9.4-0.5 4.6z"/><path class="a" d="m342.4 347.9l12.5-9.1 2.6 2-1.4 3.2 5 5 3.7-0.5 1.8 2.8 14.8 0.5 1.4 3.6 7.2 0.5 4.1 4.7 2.8 3.1-2.4 7.1 5.2 8.6 5.2 4.3 3 8.4-3.3 8-12.5 0.8-5.9-3.6-9.5-0.1-10.8 3.6-4.1 4.7-7.3-6.1-7.5-0.3-1.7-2.9-8.4-3.8-1.4-8.9 1.9-2.8-1.3-6.2-5-6.2 10.4-9.6-2.5-7.6 0.5-4.6z"/><path class="a" d="m302.1 278.1l12.9 1.8 2.6 13.1-2.8 5.7 2.6 2.6-1.5 3 5.2 8.8 1 10-1.7 4-3 0.9-14.8-3-2.2 2.8-12.9 1.1-3.1 3.3-2-2.7-6.5 1.2-2.8-1.3 1.7-3.1-2.9-1.4-2.9-6.2h-3.3l-5.1-4.8 0.8-6.6-2.4-3.4 6.4-0.5-1.1-3 3.6-13.4 5.8-3 2.6 1.9 2.9-4 2.8-2.3-1.1-5.5 6.8-3.6 2.7 1.4 1.8-2.9 7.1-1 5.8 3.9z"/><path class="a" d="m282.4 329.5l2 2.7 1.3 2.9-3.4 6 7.5 11 1.9 5.8-0.9 3.9 3.2 1.6 0.1 3.3 7.2 0.5 5.3 3.3 0.7 6.7-9.9 4.5-5.3 5.2-6.5 1.4-5.3 4.4-2.8-1.2-1.7 2.9-6.5-2.4 2.2-3-8-6.3-10.6 1.2v-5.3l-7-3.4 3.8-4.3 3.1-0.6 4.5-9 2.9-1.2 0.7-3.6-5.3-4 0.2-5.7v-3.9l3.4-5.7 6.4-3 1.3-3.4 3.8 1 1.4-2.7 1 0.3 2.8 1.3z"/><path class="a" d="m333.4 377.2l2.7-2.7 1.3 6.2-1.9 2.8 1.4 8.9 0.8 6.7-7-2.2-0.7 3.9-8.6 10.6 2.1 2.5-2.6 2.2-0.3 3.9-3.5 1.2 1.7 3.8-3.7 2.2-7.6-0.2-5.9 2.9-7.6-6.7-9.1 0.8-3.8-7.8-3.7-0.9-0.2-3.3-2.6-1.7 2.3-2.1-2-3.3 4-5.1-3.1-5.4 1.7-2.9 2.8 1.2 5.3-4.4 6.5-1.4 5.3-5.2 9.9-4.5 7.9-3.8 12.6 5.8 2.5-2.9z"/><path class="a" d="m337.7 399.1l-0.8-6.7 8.4 3.8 1.7 2.9 7.5 0.3 7.3 6.1 4.1-4.7 0.1 4.5 6.1 1.6 3.7 9.8 2.9 1.3-3.7 0.2 3.9 9-1.2 1.1-7.6 6.4-2-2.6-7.7 17.9-2.9-5.8 0.5-3.4-2.6-1.7-1.4-4.8-5.9-4.4-5.3 4.7-3.4 10.1-4.3 5.5-7.1-1.7-5.9 3.6-3.6-5.6 1.9-6.5-4.2-6.7-1.1-6.1 3.7-2.2-1.7-3.8 3.5-1.2 0.3-3.9 2.6-2.2-2.1-2.5 8.6-10.6 0.7-3.9z"/><path class="a" d="m284.2 429.7l0.7-5.7 9.1-0.8 7.6 6.7 5.9-2.9 7.6 0.2 1.1 6.1 4.2 6.7-1.9 6.5 3.6 5.6-1.8 1.7-6.7 1.5-8.6 5.6 0.9 10.3-6.9 0.8-8.4 6.3-3-2.6-9.8 2.7-0.5-4.3-2.7 1.6-3.1-1.2-5.1-4.4 2.5-2.6-3.5 0.6-3-10.3 3.8-3.5 5.2-7.2 6.9-3.9-0.8-4 5.1-3.6z"/><path class="a" d="m265.4 468.1l3.5-0.6-2.5 2.6 5.1 4.4 3.1 1.2 2.7-1.6 0.5 4.3 9.8-2.7 3 2.6 8.4-6.3 6.9-0.8h0.1l-0.5 3.3 3.5 3.1-2.7 2.7 4.9 4-10.4 3.6-2.9-1.2-3.5 1.2 2.1 2.5-1.1 3-5.5 3.6-0.5 3.1-13.1 4.9 2.5 2.6-6.6 2.8-1.8-2.6-11.2 1-2.3-7.7-5.6-4.6 3.6-5.2-5.9-1.9 3.9-5.3 3.3 0.3-1.5-3.1 4.9-6.2-2.7-1.5v-3.3z"/><path class="a" d="m335.1 450.2l4.3-5.5 3.4-10.1 5.3-4.7 5.9 4.4 1.4 4.8 2.6 1.7-0.5 3.4 2.9 5.8v0.1l4.8 5 3.2 9.9-0.6 9.8 1.7 2.7 10.6 5-2.3 4.4-3.1 1.3 9.5 4.6-4.9 5.9 0.4 1.6-4.3 1.2-3.3 5.9-7-1.4-0.2 9.8-6.4-0.1-1.4-3.1-12.5-1.5-4.8-5.7-4.7-13-5.5-4.7-11.5-6.6-6.9 3.2-4.9-4 2.7-2.7-3.5-3.1 0.5-3.3h-0.1l-0.9-10.3 8.6-5.6 6.7-1.5 1.8-1.7 5.9-3.6z"/><path class="a" d="m383.1 435.5l7.2 1.4 0.2-3.3 3.1 0.3 10.2 8.7 2.3 10.1 4.7 9.3-1.2 2.3-4.1 3 4.5 8.6-1.4 3.3 1.6 3.3-7 2.1-9.8-2.6-0.2 3.8-4.3 0.6-8.8-3.9-10.6-5-1.7-2.7 0.6-9.8-3.2-9.9-4.8-5v-0.1l7.7-17.9 2 2.6 7.6-6.4 1.2-1.1 2.5 1.9z"/><path fill-rule="evenodd" class="a" d="m434.8 522.2l-1.2-3 4.8-5.4 3.6 1 2.2-11.9 4.4-4.7 11.7 3.3 6.1 6.4 5.1 2.6 3.9-0.7 13.5 5.3 3.6-0.3 7.5-4.7 2.2 4.3-3.7 1-2.3 5.9 6.3 10.2-3.1 0.5-1.3 3 2.5 7.1-2.8 2.2-0.5 3.7-0.1-0.1-3.1 0.9-10.9-2.7-4.4-9.8-14.9 1.7-5.1-6.2-3.1-0.2-1.4 2.8 2.4 2.6-10.9 1.2-4.1-0.9 0.6-3.2-2.3-2.7-16-0.5 4.3-6.7zm32.9 11.3l3.6-1.2 2.4-4.3-3.7 1.5-2.3-4.5h-4.6l-0.6 3.7z"/><path class="b" d="m467.7 525l2.3 4.5 3.7-1.5-2.4 4.3-3.6 1.2-5.2-4.8 0.6-3.7z"/><path class="a" d="m357.1 512.6l1.4 3.1c-2.5 1.6-5 3.2-7.6 4.9l-6.8-2.4 0.8 10.8-1 3.4-3.8 2.3-13.4-1.6-3.3 0.6-1.2 3.7-7.1-1-2-2.6-1.1-3.2-16.1-10.5 0.9-6-2.7-2.3-0.2-3.2-2.9-1.4-1.6-7.1 0.5-3.1 5.5-3.6 1.1-3-2.1-2.5 3.5-1.2 2.9 1.2 10.4-3.6 6.9-3.2 11.5 6.6 5.5 4.7 4.7 13 4.8 5.7z"/><path class="a" d="m354.6 601.4l-9.1 4.8v3.3l-7.1 0.6-5.1-4.1-10.7-2.4-3.5 0.2-5 4.4-3.6-0.2-2.7-6.3-9.8-3 2.1-5.4 9.9-3 1.5-2.9 8.3-0.2 9.7-4.4-1.6-6.7 3-1.6 15.2 1.1 9.3-6.1 8.9 5.4 0.5 19.8 6.5 8-9.7-2.5z"/><path class="a" d="m296.8 514.1l-0.9 6 16.1 10.5 1.1 3.2-0.5 0.9-5.9 1.9-1.5-2.9-9.5 11.2-2.2 2.5-6.4-2.4-0.7 3.2-3.1 0.6-3.9-6.3-3.2 1.3 3.5 5.3-6.1 1.8 0.4 6.4-7-4.6-3.1 1.2-4.3 4.4v6.7l-3.2 1-4.3 6 1.1 3.2-7.6-2.6-2.8 1.5 0.4 7.4-2.5 2.4-7.1-0.4-0.7-8.7 6.2-3.7 3-5.9-1-3-3.4 0.3 0.6-4-5.1-4.4 7.9-12.6 3.5-1.2 4-6 12.7 2.8 0.8-6.5 7.3-6.8-10.2-15 11.2-1 1.8 2.6 6.6-2.8-2.5-2.6 13.1-4.9 1.6 7.1 2.9 1.4 0.2 3.2z"/><path class="a" d="m259.2 508.8l10.2 15-7.3 6.8-0.8 6.5-12.7-2.8-4 6-3.5 1.2-13.9-2.5-1.6-3.2-6.2 0.6-2.9-9.8-3.6-1.5-2.3-3.9-4.4 0.6v-0.1l-7.4-0.3-1.8-3.1 4.8-12.4-0.6-7.2 10.5-3 0.7 3.3 2.9-1.4 0.3-3.3 4.2 0.7 1.6-2.8 9.3 0.8 5.6-3.3 9.7 1.2 3-1.5 5.9 1.9-3.6 5.2 5.6 4.6z"/><path class="a" d="m283.3 548.8l3.1-0.6 0.7-3.2 6.4 2.4 2.2-2.5 2.5 6.2 9.8 4.3 2.4 5.9 0.2 3.5-2.4 2.5 2.7 2.8-1.3 3.4-3.7 0.7 1 6.4 3.8 1.7 3.6-1.4 5.5 6.3-8.3 0.2-1.5 2.9-9.9 3-11.9-5.7-3.7 0.2-1.2 3.2-6.4-8.4-7.1 0.4-5.5-4.9-11.1-2.9-1.1-3.2 4.3-6 3.2-1v-6.7l4.3-4.4 3.1-1.2 7 4.6-0.4-6.4 6.1-1.8-3.5-5.3 3.2-1.3z"/><path class="a" d="m241.1 562.2l1 3-3 5.9-6.2 3.7 0.7 8.7-11 0.2-2.8-2.4-13.8 1.9-12.5-11.1v-0.1l1.4-9.7 1.8-3.1 3.7-0.9-0.4-3.4 9-10.3-0.9-3.5 3-1.6-0.5-8.1h-3.2l1.6-3.1-2.8-6.5 4.4-0.6 2.3 3.9 3.6 1.5 2.9 9.8 6.2-0.6 1.6 3.2 13.9 2.5-7.9 12.6 5.1 4.4-0.6 4z"/><path fill-rule="evenodd" class="a" d="m206.2 521.7v0.1l2.8 6.5-1.6 3.1h3.2l0.5 8.1-3 1.6 0.9 3.5-9 10.3 0.4 3.4-3.7 0.9-1.8 3.1-1.4 9.7h-0.2l-6.6 3.4-2.6-1.6-2.7 1.8-8.8-7.2-2.9-5.2-7 0.3-10.9-4.2-6.6-3.5-0.2-3.8-3.3 1-0.6 4.1-4.3-1-1.5-3.2 3-2.6 2.1-6.7-1.6-3.2-7.5-1.5-2.5 2.4-0.5-3.5-6.5-3 7-5.3 5.2-7 0.1-0.1 5.7 2.7 12.3-2.8 1.4 3.2 3-1.6 2.8 1.7 1.9-2.5 11-2.3 2.8 2.6 2.7-1.7 2.3 2.2 5.5-2.1 3.6 1.3 9.7-1.7zm-0.2 22.6l-0.1-3-2.4 1.2z"/><path class="a" d="m206 544.3l-2.5-1.8 2.4-1.2z"/><path class="a" d="m544.2 250.7l-0.2 0.3-1.1 3.3 4.9 4.1-2.6 2.3 0.2 3.2-13.1 16.3-9.7 6.6 0.9 10.9-13.1 12.1-1 3.5-3.4-3.5 4-8.4 2.4-2.6-4.8-4.5-3.2-0.6-6.4-11.3-3.5 0.9-1.7-2.9-2.2 2.5-1.3-2.9 3.3-5.8-5.8-8.6 25.1-11.5 3.3-5.3 6.3-2.1 3.1 0.9 2.1-2.4 3.6-0.5 0.5-3.1 6.7 0.8h0.1l6.8 3-1.5 2.8z"/><path class="a" d="m492.6 274.2l-3.3 5.8 1.3 2.9 2.2-2.5 1.7 2.9 3.5-0.9 6.4 11.3 3.2 0.6 4.8 4.5-2.4 2.6-4 8.4 3.4 3.5-3 10.1 0.2 0.1-5.3 7.4-6.1 3.6-4.4 0.2-0.5-3.1-3.7-1.8-4.5 4.9-3.3 0.2-0.1-3.4h-3.3l-4.8-8.7 3.1-1.2-0.9-6 3.2-5.6-2.5-9.7-2.8-1.8 5.6-4.2-9.2-4.9-0.5-3.4 1.2-4.6 7-7.5 2-9.3 1.3-1.5 2.6 2.4 6.1 0.1z"/><path class="a" d="m561 471.7l7 1.4 10.3 5.5 13.3-4.8 4.5 5.9-2.2 4.9-7 9.7-0.5 8.1-16.3 8.9-1.1 4.6-6.5 3.1-2.6 4.6-2.5-4.5 0.9-3.2-6.3-3-1.9-6.2-6.2-3.2 3.4-1.7-1.4-2.9 5.8-4.3 5.9 0.8-7.8-8.7-4.8-9.6 2.2-6 6.9-7.7z"/><path class="a" d="m552 512.9l6.3 3-0.9 3.2 2.5 4.5-2.3 4-6 0.8-7 9.1 4 1.9-2.5 6-4.2-0.4-3 2.8-6.4 1.5-0.1 3.1-8.3-1.4-2.3 6.3-1.3-3.2-6.6-1.8-10 2.9 0.3-3.2-6.9-4 0.5-3.7 2.8-2.2-2.5-7.1 1.3-3 3.1-0.5-6.3-10.2 2.3-5.9 3.7-1-2.2-4.3 0.2-0.4 5.9 0.2 3-2 4.5 5.5 11.4-9.6 6.6 4 1.4-3.9 10.9-0.4 6.2 3.2z"/><path class="a" d="m413.3 507.6l6.9 7.5 1.6 3.3-4.6 6.2-0.1-0.1-9.5 2.7-12.3 8.9-7.4 8.2h-7.6l-6.1 4.5-1.9-2.3-15.6-5.2-1.2-3.3-4.2 6-3.5 0.9-1.5-3.3-2.8 1.9-4-5.7 0.6-3.1 3.8-2.3 1-3.4-0.8-10.8 6.8 2.4c2.6-1.7 5.1-3.3 7.6-4.9l6.4 0.1 0.2-9.8 7 1.4 3.3-5.9 4.3-1.2v0.1l3.2 0.1 0.4 3.2 2.5-1.8 5.9 2.8 0.2-3.2 4.7-4.4 4.4-0.7 2.1 3-1 3 7.6 1.6 0.2 3.3z"/><path class="a" d="m343.5 543.5l2.8-1.9 1.5 3.3 3.5-0.9 4.2-6 1.2 3.3 15.6 5.2 1.9 2.3-3 3.1-6.4 12-0.5 11-8.9-5.4-9.3 6.1-15.2-1.1-3 1.6 1.6 6.7-9.7 4.4-5.5-6.3-3.6 1.4-3.8-1.7-1-6.4 3.7-0.7 1.3-3.4-2.7-2.8 2.4-2.5-0.2-3.5-2.4-5.9-9.8-4.3-2.5-6.2 9.5-11.2 1.5 2.9 5.9-1.9 0.5-0.9 2 2.6 7.1 1 1.2-3.7 3.3-0.6 13.4 1.6-0.6 3.1z"/><path class="a" d="m159.2 96.5l7.3 0.7 1.1 3.1-2.7 8.8 7.2 11.9h0.2l0.7 7.5 9.4 3.4-2.2 2.9 2.5 9.2-9.1 5.5 1.7 2.6-5 5.9 2 2.8 10.9 2.3 4.6 4.7-2.1 7.6-4 5h-0.1l-9.6-1-6.2-2.5-7.9 5.3-3-1-5.4-10.7 8-0.9 1.1-3.4-2.8 1.8-2.9-1.4-4.7-10.5 2.5-6.4 0.6-6.8-2.2-3.1 1.5-11.3-9.6-10.3-2.8-11.5 2.1-2.2-0.6-5.5-3.6-2 0.2-3.2 12.7 5.2 7.4-0.5z"/><path class="a" d="m128.8 169.3l4.5-4.3 3.6-0.9-0.3 6.4h12.9l5.4 10.7 3 1 7.9-5.3 6.2 2.5-0.1 13.7-1.8 2.6 2.2 19.5-6.2 2.5-4 9.7-0.6 2.3-7.6-3.9-10.1 4.4-1.8 3.1-14.8 0.5-5.9 3.8-1-6.4 3.3-0.8-3.1-1.8 2.7-2.3 1.1-3.6-2.7-2 1.7-2.9-1.2-2.8-5.7-3.1-0.6-3.2 3.9-1.1-4-0.1-1.2-4.9 5.5-7.9 10.1-2.9 1.8-10.1-0.1-6.3-0.4-0.3z"/><path fill-rule="evenodd" class="a" d="m349.4 33.1l1.4 2.9-1.1 6.8 6.6 1.1 4.4 5.9-3.5 1.8 4.3 5.9-0.7 3.1 3.3 0.4 2.1 2.6-4 12-9.6 2-1-3.6-2.6 2-3.2-5.2-0.9 3.1-9.4-3.9-2.8 3.5-1.9-3.6 2.9-6.4-13.4 2.8-8.1-6.4-1-3.4-13.8-1.2-2.5-1.9-0.5-4.2 0.7-6.7 3.1 2-3.3-3.9 0.1-20.2 6.5-5.6 15.4-4.9 7.5 14.4 6.2 2.9-0.8 3.2 4.6 4.7 13.1 0.5zm12.7 34.4l-3.9 3.7 3.1-0.8z"/><path class="a" d="m361.1 91.8l2.6 7.9-11.6 1.7-9.6 7.7-14.4-7.6-16.1-2.4-3.6 1.3-4.6-4.1v-0.1l-3.9-9.4-14-12-0.1-0.1 7.3-9.9 3.2 1.6-3.4-6.2 0.4-3.3 4.1-1.6 13.8 1.2 1 3.4 8.1 6.4 13.4-2.8-2.9 6.4 1.9 3.6 2.8-3.5 9.4 3.9 0.9-3.1 3.2 5.2 2.6-2 1 3.6 9.6-2 3.7 2.9-0.5 4.2z"/><path class="a" d="m475.9 111l1.4-3.2h7.7l4 3.4 2.7 10.6 2.8 1.8 1.3 4-1.7 3.4 1.1 6.3-3.3 0.2 5 8.5 12.9 4.4-0.5 3.2 3.1 5.8 9.5 1.7 6 4.2 16.1 6.2 2.3 2.9 2.1 1.4-1.7 0.5-11.9 8.6-6.8-1.9-1.8-2.9-5.9 4.2-6.8 1.1-2.7-1.9-6 2.2-1.2 3.1-6.5 0.8-4.6-5.4 0.1-3.3-6.4-0.7 0.2-3.1-2.8-2.3 1.8-3.2-1.4-9.6 2.5-15.5 1-3-5.5-13 1.7-6.6-1.4-3-4.9-5.4-6.1 2.2-1.4-6z"/><path class="a" d="m494.7 113.8l3.2-0.2 4.9-3.9 12.5 2.9 3.3 2.4 1.9 6.5 9 10.2 3.1 0.8 0.3-3.2 3.2-1.8 3.4 1.6 2.5 4.4 2.8-1.4 7.8 1.4 7.1-4.7 9.4 8.4 0.2 0.1-1.5 4.7-1.6 2.9-10.1 0.3-10.1-5.2-1-3.1-5.5 12.1 6.1 2.8-1.8 2.8 2.6 1.8 1.6-2.8 3.1 0.4 5 3.8-3.4 15-2.5 1.9-3.9-0.3-2.3-2.9-16.1-6.2-6-4.2-9.5-1.7-3.1-5.8 0.5-3.2-12.9-4.4-5-8.5 3.3-0.2-1.1-6.3 1.7-3.4-1.3-4-2.8-1.8-2.7-10.6z"/><path class="a" d="m259.9 239l-0.3 6.1 2.5-2 6.8 3.7-0.8 3.1 3.8 5.8-1.3 10.2 2.6 2.1 3-1.4 4.7 7.5 1.1 5.5-2.8 2.3-2.9 4-2.6-1.9-5.8 3-3.6 13.4 1.1 3-6.4 0.5-7.9-11.2-0.3-3.5-6-3.4 1.6 3.3-11.2 0.5-3.2-1.6-1.4-6.9-3.3 0.3-0.3-3.6-6.1-3.6h-0.1l6.5-17.2 1.9-10.4 0.8-2.8 6.9 2.9-0.6-3.6 3.2 0.3 8.6-5z"/><path class="a" d="m232 288l3.2 1.6 11.2-0.5-1.6-3.3 6 3.4 0.3 3.5 7.9 11.2 2.4 3.4-0.8 6.6 5.1 4.8h3.3l2.9 6.2 2.9 1.4-1.7 3.1-1-0.3-1.4 2.7-3.8-1-1.3 3.4-6.4 3-3.4 5.7v3.9l-5.4-0.8-1.4 2.8-4.3 1.6-4.6-4.4-2.5 2.1 1.6 2.7-3.3 0.9-10.2-3.3 1-3.2-5.1-3.4 3.6-9.5-7.1-0.2v-3.2l-2.3-2.2-0.7-6.5 3.9-6.2-1.7-3.4-3 0.9 5-15.8-3-1.3 0.9-3.4-3.8-10 7.5-6.8 6.1 3.6 0.3 3.6 3.3-0.3z"/><path class="a" d="m441.1 92.3l6.7-0.2 7.5 6.6 6.8 1.7v3.6l3.6-0.4-2 1.4-2.3 3-6.4-2.3-2.2 2.3 1 9.8-3.6 5.7 1.5 2.8-4.7 4.2-22.5-2-11.1-7.5-7.5-1.1-0.4-16 3.1-0.4 5.7-8-1.6-3.5 1.6-3.9-1-6.5 3.2-0.6 6.1 1.9 9.8-4.4 1.9-7.2 4.6-4.9 3 1.8-2.9 5.7v4.6l3.2 6.5z"/><path class="a" d="m461.4 108l2.3-3 2-1.4 3.9 8.2 0.3-0.1 1.4 6 6.1-2.2 4.9 5.4 1.4 3-1.7 6.6 5.5 13-1 3-2.5 15.5 1.4 9.6-1.8 3.2 2.8 2.3-0.2 3.1-2.2 2.6-3.4-0.6-7.8 3.8-19-11.6-3.8-5.8-0.5-4.6-3.6-5.1 1.3-6.6 3.4-1.2 0.7-4.4-2.9-1.5 1.1-4.6-2.5-10.1 4.7-4.2-1.5-2.8 3.6-5.7-1-9.8 2.2-2.3z"/><path class="c" d="m201.8 232.5h-0.1"/><path class="d" d="m447 130.5l2.5 10.1-1.1 4.6 2.9 1.5-0.7 4.4-3.4 1.2-1.3 6.6 3.6 5.1 0.5 4.6"/><path class="d" d="m384.4 174.7l3.7 5 10.1 1.3v-3.7l10.6-8.5 7.3-1 3.5 0.6 0.4 6.8 2.9 2.3c2.2 0.8 4.2 1.7 6.4 2.5l2.8-1.7 3.7 1.3"/><path class="d" d="m435.8 179.6h5.3l-0.8-3.2 2.6-2.6-2.5-2.7 9.6-2.5"/><path class="d" d="m472.8 186l-19-11.6-3.8-5.8"/><path class="d" d="m472.8 186l-2.7 2.7 14.4 10.7-2 9.6 6.2 5.2 0.2 3.6 3-1.2 1.5 2.8 0.2 1.7-2.5 3.6-3.2-0.5-2.4 2.8-0.3 9.3-3.5 1.2-2.5-2-7.3 4.3-1.4 2.8-5.4 2.2v-3.2l-3.3-1.8-10.4-2.2-2.6-5.4 3.2-2.7-1.2-3.5-2-2.5-3.3-0.3 0.4-3.2-2.9-1.2-0.6-3-4-0.8"/><path class="d" d="m435.8 179.6l-0.7 3.8 2.7 5.9 6.3 3.3 0.6 11.1-0.2 3.1-6.2 2.8 0.1 5.4"/><path class="d" d="m419.5 222.1l2.5-2.2 6.9-1.1 5.2-4.4 4.3 0.6"/><path class="d" d="m486.2 180.2l-2.2 2.6-3.4-0.6-7.8 3.8"/><path class="d" d="m493.4 219.4l9.1-6.4 7.9 4.8 6.4-1.9 5.5 4.1 5.7-2.5 9.4 7.5"/><path class="d" d="m546.3 174.4l3.9 0.3 2.5-1.9 3.4-15-5-3.8-3.1-0.4-1.6 2.8-2.6-1.8 1.8-2.8-6.1-2.8 5.5-12.1 1 3.1 10.1 5.2 10.1-0.3 1.6-2.9 1.5-4.7v-0.1"/><path class="d" d="m552.8 189.6l3.5 0.2 9.5 6.4 0.4 3 4.6 2.2"/><path class="d" d="m552.8 189.6l-5.8-2.5 1.4-11.3"/><path class="d" d="m552.8 189.6l-1.2 1-4.7 15.3-5.3 8.7-0.1 7-3.1 2.6"/><path class="d" d="m537.6 242.4l-2.8-11.1 2.6-6.3"/><path class="d" d="m538.4 224.2l8.6 5.7 0.5 10.1 3.1-0.2 2.4 5.7-4.4 0.5v0.2l-4.2 4.7-0.2-0.2-1.3-2.5 1.5-2.8-6.8-3"/><path class="d" d="m538.4 224.2l-1 0.8"/><path class="d" d="m486.8 265.6l25.1-11.5 3.3-5.3 6.3-2.1 3.1 0.9 2.1-2.4 3.6-0.5 0.5-3.1 6.7 0.8h0.1"/><path class="d" d="m544.3 365.4l-0.2 0.4-2.5 1.7-6.8-2.5-2.5-2.1 0.6-3.4-2.8-1.8-10.5 15.7-5.2-4-3.6-1-3 1.8-3.3-1.9-1.4-2.8-3.1-1-3-7.5"/><path class="d" d="m486.8 265.6l-6.1-0.1-2.6-2.4"/><path class="d" d="m486.8 265.6l5.8 8.6-3.3 5.8 1.3 2.9 2.2-2.5 1.7 2.9 3.5-0.9 6.4 11.3 3.2 0.6 4.8 4.5-2.4 2.6-4 8.4 3.4 3.5"/><path class="d" d="m470.5 242.6l3.1-1.8 2.3 3.4 0.2 3.6-5.3 4.5 2.9 1.7 4.4 9.1"/><path class="d" d="m478.1 263.1l-1.3 1.5-2 9.3-7 7.5-1.2 4.6"/><path class="d" d="m466.6 286l-16.9 1.6-9.9 4.8-6.2-7.1-6.2-2.1-1.5-3-6.4-1.9-2.7-2.8"/><path class="d" d="m466.6 286l0.5 3.4 9.2 4.9-5.6 4.2 2.8 1.8 2.5 9.7-3.2 5.6 0.9 6-3.1 1.2"/><path class="d" d="m445.9 342.3l6.6-23.4 6.6 1.6 6.1-1.4 5.4 3.7"/><path class="d" d="m506.6 323.5l-5.3 7.4-6.1 3.6-4.4 0.2-0.5-3.1-3.7-1.8-4.5 4.9-3.3 0.2-0.1-3.4h-3.3l-4.8-8.7"/><path class="d" d="m462.2 366.9l-7.2 0.6-4.1-6.4-3.2 0.6-3.5-10.4 1.7-9"/><path class="d" d="m427 339.9l0.3-3.3 2.7-2.2 2.4 2.1 2.5-1.9 2.8 1.7 1.8-2.6 6.4 8.6"/><path class="d" d="m497 357v-0.1l-0.9-10.4h3.3l3.1-3.3"/><path class="d" d="m488 379.7l7.3 11.9 6.9 0.2 0.4-3.1 10.6 2.3 3 7.2-2.6 6 1.2 6.1 5.7 1.7"/><path class="d" d="m497 357l-2.6 15.2-6.4 7.5"/><path class="d" d="m538.4 412.3h-0.1l-6.8 1.4-2.2 2.2-8.8-3.9"/><path class="d" d="m520.5 412l-1.7 4.3 2 4.6 4.9 3.5-0.4 6.6-3.5-1.2-14.2 4.3-1 3.1-6.1 1.4-1.1 3.5"/><path class="d" d="m462.2 366.9l0.4 8-2.9 5.6-7.7 1.7-2.8 2.8 2.1 2.8-5 4.4"/><path class="d" d="m462.2 366.9l6.8 2.3 3.3-5.8 3.2-0.7 12.5 17"/><path class="d" d="m446.3 392.2l-5.1-2.9-1-3.3-6.6-2.4-5.2-4.7-1.3-3.3 1.4-2.8-2.5-1.9 1.9-6.5-5.8-7.6 1.8-9.7 5.4-3.8-2.3-3.4"/><path class="d" d="m446.3 392.2l0.2 1.2-0.1 5-5.5 3.1-3.7 5.4-3.8 0.9"/><path class="d" d="m448.8 403.2l-2.4-4.8"/><path class="d" d="m546.3 174.4l2.1 1.4-1.7 0.5-11.9 8.6-6.8-1.9-1.8-2.9-5.9 4.2-6.8 1.1-2.7-1.9-6 2.2-1.2 3.1-6.5 0.8-4.6-5.4 0.1-3.3-6.4-0.7"/><path class="d" d="m433.4 407.8l-1.1 4.7v3.4l-2.9-1.3-1.6 5.9-3 2.5 0.8 3.2-3.9 0.5-3.8 6.6-6.6 2-7.5 7.3"/><path class="d" d="m448.8 403.2l0.5 11.5 4.2 12.7-1.6 6.9-3.9 5.1 1 8-3.4 6.6-2.3 16.1"/><path class="d" d="m448.8 403.2l10-3.5 5.5 3 3.7 8.8-1.2 7 3-1.2 9.2 2.2 3.4-1.8 1 19.6 3.3-0.6 6.1 4.4 6.6 1"/><path class="d" d="m443.4 474.3l3 5 0.2 6.2 7.1 7.2-5.1 5.5"/><path class="d" d="m443.3 470.1l0.1 4.2"/><path class="d" d="m443.4 474.3l-6.7-3.8h-3.1l-2.9 2.5-0.1-3.6-7.9 5-8.8-5.7-3.1-6.7"/><path class="d" d="m443.3 470.1l6.6 0.8 3.9 4.8 9.8-4.4 2.7 1.6 2.8-2.4 0.6 6.4 10.5 0.9 0.1 3.3 5.8 2.5"/><path class="d" d="m459.1 462.8l5.1 3.1-2.7 4-4.5 1.3-2.3-2.5 1.4-3.4z"/><path class="d" d="m494.7 477.9l0.2-5.3-11.2-6.3-1.7-3.1 3.6-5.6 4.7 1.6 2.8-2.9-3.4-2.5 2.8-7.6 6.5-0.4 0.4-3.7"/><path class="d" d="m494.7 477.9l6.7-1.6 4.2 1.2-3.9-5.5 4.4 1.3 1.6-9.7 5.9-4.5 3.8-0.9 3.9 5.1 0.8-4.3 4.2-4.7 12.4 3.8 10.2-11.5 6.7-3.7 0.2-0.3"/><path class="d" d="m486.1 483.6l4.8-5.3 2.7-0.1 1.1-0.3"/><path class="d" d="m554.1 463.4l-6.9 7.7-2.2 6 4.8 9.6 7.8 8.7-5.9-0.8-5.8 4.3 1.4 2.9-3.4 1.7"/><path class="d" d="m316.9 9.9l7.5 14.4 6.2 2.9-0.8 3.2 4.6 4.7 13.1 0.5 1.9-2.5 1.4 2.9-1.1 6.8 6.6 1.1 4.4 5.9-3.5 1.8 4.3 5.9-0.7 3.1 3.3 0.4 2.1 2.6-4 12"/><path class="d" d="m358.2 71.2l3.9-3.7-0.8 2.9z"/><path class="d" d="m363.7 99.7l-2.6-7.9 4.3-9.1 0.5-4.2"/><path class="d" d="m365.9 78.5l-3.7-2.9"/><path class="d" d="m365.9 78.5l14.1-0.6 2.9-2.5 2.7 1.9 5.8-2 17.6 4.7v0.1"/><path class="d" d="m362.2 75.6l-9.6 2-1-3.6-2.6 2-3.2-5.2-0.9 3.1-9.4-3.9-2.8 3.5-1.9-3.6 2.9-6.4-13.4 2.8-8.1-6.4-1-3.4-13.8-1.2"/><path class="d" d="m363.7 99.7l-11.6 1.7-9.6 7.7-14.4-7.6-16.1-2.4-3.6 1.3-4.6-4.1v-0.1"/><path class="d" d="m361.9 140.5l2.5-1.9-0.6-3.1-3.3-1.3-2.6 1.7-0.9-3.3 3.4 0.4-3.2-5.3 2.9-1.7 2.7-6.5 2.9-1.3-2.5-2 0.9-5-0.4-11.5"/><path class="d" d="m413.3 81.6l1 6.5-1.6 3.9 1.6 3.5-5.7 8-3.1 0.4 0.4 16"/><path class="d" d="m526.3 606.8l15.3 2.4 1.4 3.9 6.7 3.8 6.7 6.6 0.7 3.6 2.9 1.3 4.1 12.3 4.4 0.6 3.6-1.9"/><path class="d" d="m240.8 151.2l0.8-2.5-2.7-4.6 1.6-3.4-3-10.5 2.5-2.3h-3.2l-0.4-9.8v-0.1l1.6-0.7 7.4-2.9 8.5 5.6 3.8-0.9 5.5 3.4-2 2.7 2.3 2.4 6 2.6 1.6-2.9 9.2-2.8 5.4-8 14.7 3.8"/><path class="d" d="m285.8 74.7l0.1 0.1 14 12 3.9 9.4"/><path class="d" d="m300.4 120.3l1.5-9-1.5-9.8 3.4-5.3"/><path class="d" d="m299.9 132.6l1.7 3.7 6.3 1.2 7.1-2 10.3 2.5 2.6-1.9 12.1 7.2"/><path class="d" d="m290.5 152.6l-1.9-6.5 2.5-2.9 4.3 0.1"/><path class="d" d="m295.4 143.3l10.6 0.9 10.2 4.1 6.1 6.8"/><path class="d" d="m295.4 143.3l4.5-10.7"/><path class="d" d="m300.4 120.3l3.9 9.4-4.4 2.9"/><path class="d" d="m290.5 152.6l-6.7 7.8 0.3 3.1-6.8 1.5-3.2-1.8-5.9 3.6-6.8 1.2-2.6 2.9"/><path class="d" d="m309.5 186.3l-3.5 0.8-2.5-2.5-1.4-6.3-6.9-6-0.6-12.2-4.1-7.5"/><path class="d" d="m322.3 155.1h0.1l4-2.9 3.7-1.5 2.9 1.3c1-0.8 2-1.5 3-2.2 0.7-0.5 1.5-1.1 2.3-1.6"/><path class="d" d="m323.6 164.4l-3.5-5.8 2.2-3.5"/><path class="d" d="m323.6 164.4h0.1l9.9 4.1 3.1-1 2.6 2.6"/><path class="d" d="m309.5 186.3l5.2-9.7-0.7-3.2 1.7-2.9 7.9-6.1"/><path class="d" d="m240.8 151.2l0.2 3.6 7.1 0.6 8.8 10.6-2 2.6 3.9 2.3"/><path class="d" d="m258.8 170.9l0.1 3.7 5.3 4.8-0.1 5.1 0.5 5.2-8.4 5.7 1.2 8.5"/><path class="d" d="m183.2 163.1l6-3.3 1-2.9 3.1 1.4 7.1-2.6 5.6 3.4 2.8-2 6.5 1.3 3.3-0.4 8-6 7.9-1.9 6.3 1.1"/><path class="d" d="m259.3 210.2l-2.2 2.3 1.9 2.6 0.4 6.2-7 11.9-3.6 1.2-0.7 3.9v0.1l-8.6 5-3.2-0.3 0.6 3.6-6.9-2.9"/><path class="d" d="m546.3 174.4l-2.3-2.9-16.1-6.2-6-4.2-9.5-1.7-3.1-5.8 0.5-3.2-12.9-4.4-5-8.5 3.3-0.2-1.1-6.3 1.7-3.4-1.3-4-2.8-1.8-2.7-10.6"/><path class="d" d="m257.4 203.9l2.4 4.2-0.5 2.1"/><path class="d" d="m218.3 190l3.4 0.1 12.4-6.6 3.1 1.7 1.7 9.5 8.2 5.6 3.2-1.2 3.5 4 3.6 0.8"/><path class="d" d="m248.1 238.4l11.8 0.6-0.3 6.1 2.5-2 6.8 3.7-0.8 3.1 3.8 5.8-1.3 10.2 2.6 2.1 3-1.4 4.7 7.5"/><path class="d" d="m331.6 195.9l-4.2-0.6-3.1 1.9-1.7-3-2.2 3.2-7.7 0.8h-0.1l-3.1-11.9"/><path class="d" d="m312.7 198.2l-0.6 1.7-5.4 12.2-9.5 0.6-6.8 3.2 0.3 3.1h-0.1"/><path class="d" d="m290.6 219l2.8 8.1-1.9 3.4 1.9 6.4 3.4-1.4 2.6 1.6 1.3 4.2 3.3 0.7 2-2.5 17.1 1.7 0.9 3-5.6 2.6 5.8 8.6-6.6 4.6 2.3 6.6-10.9 2.3-0.7 3.1-3.2-0.1"/><path class="d" d="m447 130.5l-22.5-2-11.1-7.5-7.5-1.1"/><path class="d" d="m381 158.7l8.6-11.5-2.8-1.4 1-3-1.9-2.8 6.1-2.5-3.6-9 1.4-3 9-4.5 6 2.1 1.1-3.2"/><path class="d" d="m381 158.7l-10.4-6.7-4.4-4.7 0.7-3.2-2-2.8-3-0.8"/><path class="d" d="m340 143.3l0.3 2.3-1.9 2.6h-0.1"/><path class="d" d="m361.9 140.5l-9 3.3-2.9-1.8-2.2 2.5-7.8-1.2"/><path class="d" d="m338.3 148.2l1.9 5.8-1.5 2.8 1.5 5.3v0.1l0.3 3.3-1.2 4.6"/><path class="d" d="m339.3 170.1l0.5 1-4.4 19.5-3.8 5.3"/><path class="d" d="m378.2 190.7l-0.4-9.6 3.3-0.9 3.3-5.5"/><path class="d" d="m384.4 174.7l-2.9-1.9-3.9-9.3 2.9-2.5 0.5-2.3"/><path class="d" d="m356.3 206.7l4.4-6.1 0.3-6.5 17.2-3.4"/><path class="d" d="m356.3 206.7l-12.5 3-10.3-0.8 2.9-1.7 0.6-3.1-4.7-4.8-0.7-3.4"/><path class="d" d="m356.3 206.7l7.6 8.4 0.4 6.5-5.2 5.5 1.3 3.3-1.8 2.6-5.9 3.8 3.3 3.1 2.5 7.8"/><path class="d" d="m419.5 222.1l-3.3-1.6-14.1 1.8-5.7-12.3-4-4.6-2.2 2.5-2.9-9.3-5-6.3-4.1-1.6"/><path class="d" d="m419.5 222.1l-2.1 3.4 3.5 4.4-0.4 4.2-3.2 2.4 2 2.5-7.5 11.7-1.5 9.1 1.4 3h-0.1"/><path class="d" d="m129.1 173.4l-0.1-0.1-3.2-0.3-1.7-2.7v-1.8-0.2h3.2z"/><path class="d" d="m129.1 173.4l2.3 1.7 0.4 0.3 0.1 6.3-1.8 10.1-10.1 2.9-5.5 7.9"/><path class="d" d="m54 162.1l0.2 3.2 4 5.2-2.8 9.4 2.8 10.3-2.3 4.7"/><path class="d" d="m114.5 202.6l-3.2 1.3-1.7-3.2-4-0.9-6.9 8.4-2.1-6.7-3.3 1-14.5-7.3-8.8 3.4-14.1-3.7"/><path class="d" d="m55.9 218.4l3.1 1 2.8-3.2-0.1-6.1-9.1-1.5-3.8-6.1-0.6-4 7.7-3.6"/><path class="d" d="m198.8 521.4l7.4 0.3v0.1"/><path class="d" d="m114.5 202.6l1.2 4.9 4 0.1-3.9 1.1 0.6 3.2 5.7 3.1 1.2 2.8-1.7 2.9 2.7 2-1.1 3.6-2.7 2.3 3.1 1.8-3.3 0.8 1 6.4"/><path class="d" d="m121.3 237.6l5.9-3.8 14.8-0.5 1.8-3.1 10.1-4.4 7.6 3.9"/><path class="d" d="m183.2 163.1l4.6 4.7-2.1 7.6-4 5"/><path class="d" d="m181.7 180.4l3.7 4.1 2.7-1.8 2.8 1.9 7.6-3.6h10.2l0.8-3.1 3 0.3 2.2 6.7 3.7 1.7v3.3l-0.1 0.1"/><path class="d" d="m183.2 163.1l-10.9-2.3-2-2.8 5-5.9-1.7-2.6 9.1-5.5-2.5-9.2 2.2-2.9-9.4-3.4-0.7-7.5v-0.1"/><path class="d" d="m172 179.4l-6.2-2.5-7.9 5.3-3-1-5.4-10.7"/><path class="d" d="m181.7 180.4h-0.1l-9.6-1"/><path class="d" d="m172 179.4l-0.1 13.7-1.8 2.6 2.2 19.5-6.2 2.5-4 9.7"/><path class="d" d="m198.8 521.4l-9.7 1.7-3.6-1.3-5.5 2.1-2.3-2.2-2.7 1.7-2.8-2.6-11 2.3-1.9 2.5-2.8-1.7-3 1.6-1.4-3.2-12.3 2.8-5.7-2.7"/><path class="d" d="m162.1 227.4l-0.6 2.3"/><path class="d" d="m230 243.8h-8.3l-5.8-3.7-3.5 1.4-2.3-2.2-0.2-3.9-7.5 0.1-0.6-3"/><path class="d" d="m469.9 111.7l1.4 6 6.1-2.2 4.9 5.4 1.4 3-1.7 6.6 5.5 13-1 3-2.5 15.5 1.4 9.6-1.8 3.2 2.8 2.3-0.2 3.1"/><path class="d" d="m259 303.9l-7.9-11.2-0.3-3.5-6-3.4 1.6 3.3-11.2 0.5-3.2-1.6-1.4-6.9-3.3 0.3-0.3-3.6-6.1-3.6h-0.1l6.5-17.2 1.9-10.4 0.8-2.8"/><path class="d" d="m175.8 285.7l13.8-0.9 4.1-5.3 6.3-0.9 10.9-0.3 2.5 2.7"/><path class="d" d="m220.9 274.2l-7.5 6.8"/><path class="d" d="m225.7 348.4l1-3.2-5.1-3.4 3.6-9.5-7.1-0.2v-3.2l-2.3-2.2-0.7-6.5 3.9-6.2-1.7-3.4-3 0.9 5-15.8-3-1.3 0.9-3.4-3.8-10"/><path class="d" d="m161.5 229.7l8.3 15-3.2-0.4-2.1 2.7 9.6 3.7 0.3 6.6-16.1 2.4-3.2 2.5 3.4 0.9 4 5.3 0.9 3.1-3.1 5 3.1 1.6 0.4 3.3"/><path class="d" d="m163.8 281.4l-5.4-3.9-1.7 2.7-3.5 0.9 0.5 3.3-2.7 2.4-2.6-1.9v-3.6l-3.8 0.3-0.3 10.7-13.1-5.6-6.8-7"/><path class="d" d="m175.8 285.7l2.5 6.4 4.7 4.6 5.4 20.2-0.3 8.3 2.8 2.2-10.2 5"/><path class="d" d="m175.8 285.7l-12-4.3"/><path class="d" d="m162.4 331.3l9.9-3.8-1.5 3.3 7.2-0.3 2.7 1.9"/><path class="d" d="m500 510.1l2.2 4.3-3.7 1-2.3 5.9 6.3 10.2-3.1 0.5-1.3 3 2.5 7.1-2.8 2.2-0.5 3.7"/><path class="d" d="m145.3 337.2l-0.7 0.3-1.1-2.8v-0.2l2.7 2.4 0.1 0.1h-0.1l-0.1 0.1"/><path class="d" d="m500.2 509.7l-0.2 0.4"/><path class="d" d="m500 510.1l-7.5 4.7-3.6 0.3-13.5-5.3-3.9 0.7-5.1-2.6-6.1-6.4-11.7-3.3"/><path class="d" d="m210.9 356.7l-4-5.2-19.6-7.6-6.6-7.3v-4.2"/><path class="d" d="m210.9 356.7l3.1-1.8 0.3-3.3 6.4-2.9 4.1 0.5 0.8-0.8h0.1"/><path class="d" d="m500.2 509.7l-6.9-6.8-3.8-1.1 1.9-2.8-4.2-5.9 1.4-3.4-2.5-6.1"/><path class="d" d="m121.3 237.6l-0.4 6.8-17.2 5.1"/><path class="d" d="m543.9 503.5l-10.9 0.4-1.4 3.9-6.6-4-11.4 9.6-4.5-5.5-3 2-5.9-0.2"/><path class="d" d="m214.5 410.7v-0.1l-7.1-7.2-6.7-1.2 1.9-3.4-2.5-2.3 2.6-1.9-1.7-2.9 2-3-2.8-1.8-0.3-3.4-5.6-3.5 2.5-2.3-3.6-6.4 9.1-3.7 2.5 2.3 3.1-0.2 3-13"/><path class="d" d="m212.1 416.7l-10.5-1.1-6.9-4.9-0.6-6.4-7.2-2-0.8-3.1-6.6 0.9"/><path class="d" d="m214.5 410.7v-0.1l2.3-2.2 6.1-0.8 4.6-6.4 0.9-6.5 8.8-6.6 2.4-5.9 6.3-6.9v-0.1l7 3.4v5.3l10.6-1.2 8 6.3-2.2 3 6.5 2.4"/><path class="d" d="m214.5 410.7l-0.1 0.5-2.3 5.5"/><path class="d" d="m228.1 440.7l-1.1-1.5 1-3.3-2.6-2.9-2.4 3.6-11-2.5 2.3-2.3 0.2-6.5 3.2-6.1-1.3-3.1-4.3 0.6"/><path class="d" d="m150.7 458.3l8.8-3.9 4.2 1.5-1.6 5.9 19.3-0.8-0.5 3.3 12.4 8.5 0.7 5.3h7.2l1.8-4 2.3 3"/><path class="d" d="m205.3 477.1l5.1-4.5-1.7-2.7 3.4-2.6 0.6-10 9.6-9.8-3.3-1.5 1.2-3.6 3.1 0.9 1.3-2.8 3.5 0.2"/><path class="d" d="m266.2 454.3l-4.8-4.7-6 3.1-1.7-6.9-6.9 1.2-2.4-2-3.2 2.3-10 0.5-3.1-7.1"/><path class="d" d="m205.3 477.1l0.5 5.2 13.1 3.2-4 5.9 0.7 2.9"/><path class="d" d="m411.6 262.8l1.4 6.8 4.2 1.3-0.4 3.6v1"/><path class="d" d="m358.5 247.7v0.1h3.8l8.4 5.3h6.7l5.2-4.7 4.3 6.3 6.2 3.3 6.5-1 1.1 4.1 3.1-1 1.6 3.2 6.2-0.5"/><path class="d" d="m415.5 275.8l1.3-0.3"/><path class="d" d="m447 130.5l4.7-4.2-1.5-2.8 3.6-5.7-1-9.8 2.2-2.3 6.4 2.3 2.3-3 2-1.4"/><path class="d" d="m415.5 275.8l-2.9 1.9-0.1-1.6z"/><path class="d" d="m412.6 277.7l-3.2 1.1 0.3 6.6-2.3 2 4.5 7.7-2.2 2.5 0.8 3.1-12.7 6.5-7.8-3.2"/><path class="d" d="m353.7 251.2l2.2 7.3-1.9 6.4 3 2.4 3.5 8.5 0.3 6.7 2.6 2.2-0.3 6.6-1.5 9.9"/><path class="d" d="m353.7 251.2l1.7-2.7 3.1-0.8"/><path class="d" d="m353.7 251.2l-10.2 1.8-4.3-5.3-15.2-3.5"/><path class="d" d="m339.5 346.5l-4-9.4c-2.8-1.8-5.5-3.6-8.3-5.5l-1.3-4.3v-0.1l3.9-6.6 9.9-1.1 1.9-2.7-1.9-6 2.5-2.1 9.5-3.3 5.3-4.2h4.6"/><path class="d" d="m390 304l-6.7 6.8-4.9-4.2-3.2 1.9-7.1-0.1-6.5-7.2"/><path class="d" d="m336.1 374.5l-5-6.2 10.4-9.6-2.5-7.6 0.5-4.6"/><path class="d" d="m339.5 346.5l2.9 1.4 12.5-9.1 2.6 2-1.4 3.2 5 5 3.7-0.5 1.8 2.8 14.8 0.5 1.4 3.6 7.2 0.5 4.1 4.7"/><path class="d" d="m390 304l7.5 15.2 8.8 3.3 1.9 2.7-0.6 6.1-4.1 5.2"/><path class="d" d="m403.5 336.5l-4.4 1.4-0.6 3.4 1.7 14-6.1 5.3"/><path class="d" d="m427 339.9l-6.4 4.4-2.4-2.4-8.9 1.6-5.8-3.6v-3.4"/><path class="d" d="m290.6 219l-3.7-2.1-6.1 3.9-14.4-12.1-7.1 1.5"/><path class="d" d="m280.9 274.1l6.8-3.6 2.7 1.4 1.8-2.9 7.1-1 5.8 3.9"/><path class="d" d="m305.1 271.9l-3 6.2 12.9 1.8 2.6 13.1-2.8 5.7 2.6 2.6-1.5 3 5.2 8.8 1 10-1.7 4"/><path class="d" d="m280.9 274.1l1.1 5.5-2.8 2.3-2.9 4-2.6-1.9-5.8 3-3.6 13.4 1.1 3-6.4 0.5"/><path class="d" d="m273.1 329.4l1.7-3.1-2.9-1.4-2.9-6.2h-3.3l-5.1-4.8 0.8-6.6-2.4-3.4"/><path class="d" d="m273.1 329.4l2.8 1.3 6.5-1.2 2 2.7"/><path class="d" d="m255.8 346.8v-3.9l3.4-5.7 6.4-3 1.3-3.4 3.8 1 1.4-2.7 1 0.3"/><path class="d" d="m255.8 346.8l-5.4-0.8-1.4 2.8-4.3 1.6-4.6-4.4-2.5 2.1 1.6 2.7-3.3 0.9-10.2-3.3"/><path class="d" d="m255.8 346.8l-0.2 5.7 5.3 4-0.7 3.6-2.9 1.2-4.5 9-3.1 0.6-3.8 4.3"/><path class="d" d="m320.4 327.1l5.5 0.2"/><path class="d" d="m284.4 332.2l3.1-3.3 12.9-1.1 2.2-2.8 14.8 3 3-0.9"/><path class="d" d="m307.3 377.2l-0.7-6.7-5.3-3.3-7.2-0.5-0.1-3.3-3.2-1.6 0.9-3.9-1.9-5.8-7.5-11 3.4-6-1.3-2.9"/><path class="d" d="m336.1 374.5l-2.7 2.7-3.1-0.9-2.5 2.9-12.6-5.8-7.9 3.8"/><path class="d" d="m275.8 394.4l1.7-2.9 2.8 1.2 5.3-4.4 6.5-1.4 5.3-5.2 9.9-4.5"/><path class="d" d="m315.1 427.2l3.7-2.2-1.7-3.8 3.5-1.2 0.3-3.9 2.6-2.2-2.1-2.5 8.6-10.6 0.7-3.9 7 2.2-0.8-6.7"/><path class="d" d="m284.9 424l-3.8-7.8-3.7-0.9-0.2-3.3-2.6-1.7 2.3-2.1-2-3.3 4-5.1-3.1-5.4"/><path class="d" d="m284.9 424l-0.7 5.7-1.6 5.9-5.1 3.6 0.8 4-6.9 3.9-5.2 7.2"/><path class="d" d="m249 489.4l3.9-5.3 3.3 0.3-1.5-3.1 4.9-6.2-2.7-1.5v-3.3l8.5-2.2"/><path class="d" d="m305.9 471.2l-6.9 0.8-8.4 6.3-3-2.6-9.8 2.7-0.5-4.3-2.7 1.6-3.1-1.2-5.1-4.4 2.5-2.6-3.5 0.6"/><path class="d" d="m265.4 468.1l-3-10.3 3.8-3.5"/><path class="d" d="m315.1 427.2l-7.6-0.2-5.9 2.9-7.6-6.7-9.1 0.8"/><path class="d" d="m322.1 452.1l-3.6-5.6 1.9-6.5-4.2-6.7-1.1-6.1"/><path class="d" d="m322.1 452.1l5.9-3.6 7.1 1.7 4.3-5.5 3.4-10.1 5.3-4.7 5.9 4.4 1.4 4.8 2.6 1.7-0.5 3.4 2.9 5.8"/><path class="d" d="m305.9 471.2l-0.9-10.3 8.6-5.6 6.7-1.5 1.8-1.7"/><path class="d" d="m311.2 484.3l-4.9-4 2.7-2.7-3.5-3.1 0.5-3.3h-0.1"/><path class="d" d="m394.1 360.6l2.8 3.1-2.4 7.1 5.2 8.6 5.2 4.3 3 8.4-3.3 8"/><path class="d" d="m365.9 400.8l10.8-3.6 9.5 0.1 5.9 3.6 12.5-0.8"/><path class="d" d="m404.6 400.1l3.1-0.9 2.5 2.2 3.2-0.4 7-3.4 6.7 2.6 0.8 6.1 3-1.1 2.5 2.6"/><path class="d" d="m336.9 392.4l-1.4-8.9 1.9-2.8-1.3-6.2"/><path class="d" d="m365.9 400.8l-4.1 4.7-7.3-6.1-7.5-0.3-1.7-2.9-8.4-3.8"/><path class="d" d="m365.9 400.8l0.1 4.5 6.1 1.6 3.7 9.8 2.9 1.3-3.7 0.2 3.9 9"/><path class="d" d="m360.4 450l7.7-17.9 2 2.6 7.6-6.4 1.2-1.1 2.5 1.9 1.7 6.4 7.2 1.4 0.2-3.3 3.1 0.3 10.2 8.7"/><path class="d" d="m218.3 190l-4.8 3.1 0.3 7.8-5 4.4 1.4 3.3-5.6 5.1 1.6 3.9-6.2 8.7 1.7 6.2-5.7-2-6.6 3.2-3.4-0.5-9.8-4.1-2.4 2.2-11.7-3.9"/><path class="d" d="m380.1 482.5l-10.6-5-1.7-2.7 0.6-9.8-3.2-9.9-4.8-5v-0.1"/><path class="d" d="m410.8 462l-4.7-9.3-2.3-10.1"/><path class="d" d="m410.8 462l-1.2 2.3-4.1 3 4.5 8.6-1.4 3.3 1.6 3.3-7 2.1-9.8-2.6-0.2 3.8-4.3 0.6-8.8-3.9"/><path class="d" d="m379.7 500.3v0.1l3.2 0.1 0.4 3.2 2.5-1.8 5.9 2.8 0.2-3.2 4.7-4.4 4.4-0.7 2.1 3-1 3 7.6 1.6 0.2 3.3 3.4 0.3 6.9 7.5 1.6 3.3-4.6 6.2v0.1"/><path class="d" d="m543.9 503.5l6.2 3.2 1.9 6.2 6.3 3-0.9 3.2 2.5 4.5"/><path class="d" d="m448.6 498.2l-4.4 4.7-2.2 11.9-3.6-1-4.8 5.4 1.2 3-6.5 2-4.3 6.7"/><path class="d" d="m379.7 500.3l-0.4-1.6 4.9-5.9-9.5-4.6 3.1-1.3 2.3-4.4"/><path class="d" d="m358.5 515.7l6.4 0.1 0.2-9.8 7 1.4 3.3-5.9 4.3-1.2"/><path class="d" d="m311.2 484.3l6.9-3.2 11.5 6.6 5.5 4.7 4.7 13 4.8 5.7 12.5 1.5 1.4 3.1"/><path class="d" d="m340.1 534.7l3.8-2.3 1-3.4-0.8-10.8 6.8 2.4c2.6-1.7 5.1-3.3 7.6-4.9"/><path class="d" d="m374.2 548.8l-1.9-2.3-15.6-5.2-1.2-3.3-4.2 6-3.5 0.9-1.5-3.3-2.8 1.9-4-5.7 0.6-3.1"/><path class="d" d="m205.9 541.3l0.1 3-2.5-1.8z"/><path class="d" d="m319.8 587.2l9.7-4.4-1.6-6.7 3-1.6 15.2 1.1 9.3-6.1 8.9 5.4"/><path class="d" d="m289.4 500.1l0.5-3.1 5.5-3.6 1.1-3-2.1-2.5 3.5-1.2 2.9 1.2 10.4-3.6"/><path class="d" d="m313.1 533.8l-1.1-3.2-16.1-10.5 0.9-6-2.7-2.3-0.2-3.2-2.9-1.4-1.6-7.1"/><path class="d" d="m295.7 544.9l9.5-11.2 1.5 2.9 5.9-1.9 0.5-0.9"/><path class="d" d="m340.1 534.7l-13.4-1.6-3.3 0.6-1.2 3.7-7.1-1-2-2.6"/><path class="d" d="m289.4 500.1l-13.1 4.9 2.5 2.6-6.6 2.8-1.8-2.6-11.2 1"/><path class="d" d="m249 489.4l5.9 1.9-3.6 5.2 5.6 4.6 2.3 7.7"/><path class="d" d="m215.6 494.3l4.2 0.7 1.6-2.8 9.3 0.8 5.6-3.3 9.7 1.2 3-1.5"/><path class="d" d="m259.2 508.8l10.2 15-7.3 6.8-0.8 6.5-12.7-2.8-4 6-3.5 1.2"/><path class="d" d="m253.2 575.2l-1.1-3.2 4.3-6 3.2-1v-6.7l4.3-4.4 3.1-1.2 7 4.6-0.4-6.4 6.1-1.8-3.5-5.3 3.2-1.3 3.9 6.3 3.1-0.6 0.7-3.2 6.4 2.4 2.2-2.5"/><path class="d" d="m206.2 521.8l4.4-0.6 2.3 3.9 3.6 1.5 2.9 9.8 6.2-0.6 1.6 3.2 13.9 2.5-7.9 12.6 5.1 4.4-0.6 4 3.4-0.3 1 3-3 5.9-6.2 3.7 0.7 8.7"/><path class="d" d="m319.8 587.2l-5.5-6.3-3.6 1.4-3.8-1.7-1-6.4 3.7-0.7 1.3-3.4-2.7-2.8 2.4-2.5-0.2-3.5-2.4-5.9-9.8-4.3-2.5-6.2"/><path class="d" d="m300.1 593.3l9.9-3 1.5-2.9 8.3-0.2"/><path class="d" d="m198.8 521.4l-1.8-3.1 4.8-12.4-0.6-7.2 10.5-3 0.7 3.3 2.9-1.4 0.3-3.3"/><path class="d" d="m206.2 521.8l2.8 6.5-1.6 3.1h3.2l0.5 8.1-3 1.6 0.9 3.5-9 10.3 0.4 3.4-3.7 0.9-1.8 3.1-1.4 9.7v0.1"/><path class="e" d="m463.1 525h4.6l2.3 4.5 3.7-1.5-2.4 4.3-3.6 1.2-5.2-4.8z"/><path class="f" d="m335.1 5.4l3.2 1.9 2.8 6.7-1.1 6.5 1.4 3h3.7l3.2 5.8 3.4 1.5 6.2-4.3 6.6-0.6 4.3 5-0.5 3.3 3.5 9.5 3.5 1.3 3.3-2.5 1.2 3.1 6.1 1.4 2.5 10.2 2.4-2.2 6.2 1.5 6.8-1.3 4.5 5.6 3.2-0.7-2.3 7.2 3.4 6-3.6 6.8-0.2 0.3 4.2 1.3 0.3-0.1 3.2-0.6 6.1 1.9 9.8-4.4 1.9-7.2 4.6-4.9 3 1.8-2.9 5.7v4.6l3.2 6.5-1.1 7.3 6.7-0.2 7.5 6.6 6.8 1.7v3.6l3.6-0.4 3.9 8.2 0.3-0.1 6-0.7 1.4-3.2h7.7l4 3.4 5.7 2.6 3.2-0.2 4.9-3.9 12.5 2.9 3.3 2.4 1.9 6.5 9 10.2 3.1 0.8 0.3-3.2 3.2-1.8 3.4 1.6 2.5 4.4 2.8-1.4 7.8 1.4 7.1-4.7 9.4 8.4h0.2l16.3 0.6 9.6 3.4-4.4 11.9-11.8 15.4-1.6 17.6-6.6 15.3-0.1 0.3 2.2 11.6-3 17.3 3.2 8.7-2.5 2.3-0.2 3.5-3.3 0.1-0.5 3.5-3 1.1-8.6-0.1 0.9-3.3-3.3-0.7-4 0.5h-0.3l-4.1 4.5-0.2 0.3-1.1 3.3 4.9 4.1-2.6 2.3 0.2 3.2-13.1 16.3-9.7 6.6 0.9 10.9-13.1 12.1-1 3.5-3 10.1 0.2 0.1 3.9 2.3-1.4 7.8-6.3 4-0.6 5.6v0.1l0.3-0.1 7.5-1 7.9-6-2.7-3.5 3.1-6.5 4 1.6 5.6-4.7 9.4-0.6 3.8 0.7-0.5 3.2 4.1 6.1-2.6 6.9 8.8 8.3 3.7 5.2-1 3.5-9.3 9-0.2 0.2v0.2l0.5 3.4 3.3 3 6.2 2.5-0.7 3.5 2.4 6.2 8.3 5.8-3.2 5.7 1.3 3-2.2 4.1-21.7 9.3h0.1l2.5 5.9 3.1 0.1 1 7.4 5.8 3.7 6.8 0.4 4.3 10.5-4-0.1-2.1 2.4-0.1 0.1-0.1 0.2-1.5 6.6-2.5 2.1 4.4 6.1-2.1 5.5 0.2 0.2 6.9 8.3 7 1.4 10.3 5.5 13.3-4.8 4.5 5.9-2.2 4.9-7 9.7-0.5 8.1"/><path class="f" d="m371.3 602.7l-9.7-2.5-7 1.2-9.1 4.8v3.3l-7.1 0.6-5.1-4.1-10.7-2.4-3.5 0.2-5 4.4-3.6-0.2-2.7-6.3-9.8-3 2.1-5.4-11.9-5.7-3.7 0.2-1.2 3.2-6.4-8.4-7.1 0.4-5.5-4.9-11.1-2.9-7.6-2.6-2.8 1.5 0.4 7.4-2.5 2.4-7.1-0.4-11 0.2-2.8-2.4-13.8 1.9-12.5-11.1-0.2-0.1-6.6 3.4-2.6-1.6-2.7 1.8-8.8-7.2-2.9-5.2-7 0.3-10.9-4.2-6.6-3.5-0.2-3.8-3.3 1-0.6 4.1-4.3-1-1.5-3.2 3-2.6 2.1-6.7-1.6-3.2-7.5-1.5-2.5 2.4-0.5-3.5-6.5-3"/><path class="g" d="m371.3 602.7l-6.5-8-0.5-19.8 0.5-11 6.4-12 3-3.1 6.1-4.5h7.6l7.4-8.2 12.3-8.9 9.5-2.7 0.1 0.2 3.2 5.4 3.3 0.8h0.3l16 0.5 2.3 2.7-0.6 3.2 4.1 0.9 10.9-1.2-2.4-2.6 1.4-2.8 3.1 0.2 5.1 6.2 14.9-1.7 4.4 9.8 10.9 2.7 3.1-0.9 0.1 0.1 6.9 4-0.3 3.2 10-2.9 6.6 1.8 1.3 3.2 2.3-6.3 8.3 1.4 0.1-3.1 6.4-1.5 3-2.8 4.2 0.4 2.5-6-4-1.9 7-9.1 6-0.8 2.3-4 2.6-4.6 6.5-3.1 1.1-4.6 16.3-8.9"/><path class="g" d="m65.6 253.2l3.2-0.4 5.7 3.9-4.4 1.3-3.6-1z"/><path class="g" d="m568 561l1.9 10.3-0.6 11.9 4.6 6.4 4.2 29.1-6 13.4-0.1 7 0.1 0.3 0.8 9.4-2.4 6.1-2.9 2.2 3.7 0.3-6.6 16.6-3.4-1.4-1.4-3.1-12.6-3.9-5.3-4.9 0.2-3.4 5.5-3.7-10.7-2.1 3-7.9-1-6.4-8.1 2.8 3.3-9.4 2.9-1.8-8.8-4.9-1.2-6.2 5.8-4.2-4.3-4.8-2.9 1.2 0.6-3.1v-0.2l4.4-5.6-0.3-3.9 2.5-3.2 3.2-0.3 0.9-3.2 12-4.8 4-5.4 9.6 1.5-0.5-19.6 2.7-2.3z"/><path class="g" d="m111.2 279l1.1 3.5 3.4 2.1 0.2 3.5-6.8-6.5z"/><path class="g" d="m148.7 353.7l1.9-3.1 5.7 3.7 1.1 8.3-1.5 3.6z"/><path class="g" d="m143.3 334.5l0.2 0.2 2.6 2.4-0.8 0.1-0.7 0.4z"/><path class="g" d="m148.4 336.3l6.1 3.8-3.3 1.4-5-4.5h-0.1l0.1-0.1z"/><path class="g" d="m28.6 214.4l3.3 2.2 5.2-1.8 5.3 6.6 3.1-0.7v-3.2l0.5 3.2 2.9-1-0.7 3.1 3.2 0.8 4.2-1.7 0.3-3.5 0.8 8.7 2.8 1.7 3-1.5-0.5-6.6 0.7 3.4 3.3 0.7-2.4 2.4 1.7 2.9 4.1 1.8 3-1.4-2.7 1.4 0.3 3.2 2.3 3.1-0.8 4.2 2.4 2.6-1.4-3.2 3.1-2.7 3.6-0.9 2.7 2.1-1.4-6.6 3.5 5.4 1.7-2.8 4.1 0.6 2.4 2.8-2.3 2.7-7-0.9 5.4 4.3 13.9-1.2 3.1 1.8-3.4 0.2 1.8 2.9-5 4.8 2.6 7 6.8 1.1 2.3 2.3 5.6-4.1 8.1-0.7-7.6 2.9-0.7 7.4-3.4 1.5 6.6 2.4 5.4 5.6-8.7 9.3 0.4 5 11.7 13.7 2.4 7.9 9.1 7.5 5.4 1.3 1.8 3.9 6.6 1.3 5.3 4.3 0.8-3.1 3.2 0.5-5.1 10.8 3.3 1.1 4.6 8.9-3.1 0.6 1.8 6-3.3 6.4-5.4 3.7 1.5 4.8 8.8 5.5 11.7 12.6 2.3 8.3v0.1l0.7 3.1-2.4 3.7-2.8-8.7-12.1-11.9-1-3.1-3.3 6.5-7 56.3 4.5-8.8 5 5.8 0.3 3.2-7.2-1-3.6 7.8 0.1 5.3-12.4 56.2-4.2 7.9-0.1 0.1-5.2 7-7 5.3"/><path class="g" d="m335.1 5.4l-18.2 4.5-15.4 4.9-6.5 5.6-0.1 20.2 3.3 3.9-3.1-2-0.7 6.7 0.5 4.2 2.5 1.9-4.1 1.6-0.4 3.3 3.4 6.2-3.2-1.6-7.3 9.9-0.2 0.4-12.2 8.5-24.8 6.1-15.9 8.7-6.5 14.1 1.9 2.5 9.9 2.3 0.2 0.1-1.8 0.6-0.1 0.1-7.7 1.7-5.5 4.8-10.8 3-9.5-4-14-1.5-10.7-3.8-5.8 2.6-0.2 0.1-7.2-11.9 2.7-8.8-1.1-3.1-7.3-0.7-2.8 2-7.4 0.5-12.7-5.2-0.2 3.2 3.6 2 0.6 5.5-2.1 2.2 2.8 11.5 9.6 10.3-1.5 11.3 2.2 3.1-0.6 6.8-2.5 6.4 4.7 10.5 2.9 1.4 2.8-1.8-1.1 3.4-8 0.9h-12.9l0.3-6.4-3.6 0.9-4.5 4.3 2.6 5.8 0.3 0.5-2.6-2.1-0.1-0.2-1.9-4.8h-3-0.2l-0.1 2.1-4.5 0.4-1.1-3.5-3.5 1.6-1.1-3-4.1 0.4-12 10-1-4.1-4.6-2.9v-3.5l-5.1-8.9-3.3-0.6 0.7-3.2-3.4 0.3-1.9 3.4 1.5-7.4-5.3 3.6-0.6-4-10 4.1-1.6-2.8-5.1 4.2-0.3 6.9-3.5 0.5h-0.2l-5.4-3.3-3.2 0.7-0.7 3.8-2.5-3-1.8 3.6-0.1-7.3-16.2 4.8-1.7-2.9-11.4 6.1 2.9 1.5-9.4-0.9-2.2 2.8-1.5 10 2 2.6 3-1.3 3 1.4 13.8-4.2-4.2 2-0.6 3.8 6.7-1.6-0.5 3.3 3.3 1.4-3.5 0.7 7 3-6.7-1.6-1.5-2.8-4.2 1.2-6.5-1.3-1.9-2.7-1.7 4.1 2.7 5.8 2-3 3.1 0.2 6.1 3.6 1 3.6-1.8 2.8-2.8-1.5-14.1 1.4-1.7 2.8 10.7 4 4.2 7-1.3 6.1 8.3 0.7 4.1-4.6v-0.5"/><path class="g" d="m28.9 210.9l0.3-3.4 1.6 3.2z"/><path class="g" d="m28.6 214.4l-0.9-3.3 1.2-0.2"/><path class="g" d="m28.6 214.4l0.3-3.5"/><path class="h" d="m525.9 553.2v0.1c0 0 0 0-0.1 0 0 0 0 0-0.1 0h-0.1c0 0 0 0-0.1 0v0.1c0 0 0 0.1 0 0.2v0.1c0 0.1 0 0.1 0 0.1 0.1 0 0.1 0 0.1 0 0 0.1 0 0.1 0.1 0.1 0.1 0 0.1 0 0.1 0 0.1-0.1 0.1-0.1 0.1-0.1v0.1c0 0.1 0 0.1 0 0.1 0 0 0 0-0.1 0h-0.1c-0.1 0-0.1 0-0.1 0-0.1-0.1-0.1-0.1-0.2-0.1 0 0 0-0.1-0.1-0.1v-0.2c0-0.1 0-0.1 0-0.2l0.1-0.1c0.1-0.1 0.1-0.1 0.1-0.1 0.1-0.1 0.1-0.1 0.1-0.1 0 0 0 0 0.1 0 0.1 0 0.1 0 0.1 0 0.1 0 0.1 0 0.1 0.1z"/><path class="h" d="m526.5 553.3h-0.1c0 0-0.1 0-0.1 0.1v0.6h-0.2v-0.9h0.2v0.2c0 0 0 0 0-0.1 0 0 0.1 0 0.1-0.1 0 0 0 0 0.1 0 0 0 0 0 0.1 0 0 0 0 0 0.1 0.1l0.1 0.1 0.1-0.1c0.1-0.1 0.1-0.1 0.2-0.1 0.1 0 0.2 0 0.2 0.1 0 0 0 0.1 0.1 0.1v0.1 0.6h-0.2v-0.6c0 0 0 0 0-0.1 0 0 0 0-0.1 0-0.1 0-0.1 0-0.2 0 0 0 0 0-0.1 0.1v0.6h-0.2v-0.6c0 0 0 0 0-0.1 0 0 0 0-0.1 0z"/><path fill-rule="evenodd" class="h" d="m527.9 553.1c0.1 0 0.2 0 0.2 0.1l0.1 0.1h0.1c0 0.1 0 0.7 0 0.7h-0.2v-0.1c0 0-0.1 0-0.1 0.1 0 0 0 0-0.1 0-0.1 0-0.1 0-0.1 0-0.1 0-0.1-0.1-0.2-0.1 0 0 0 0 0-0.1 0-0.1 0-0.2 0-0.2 0 0 0 0 0-0.1 0.1 0 0.4 0 0.5 0v-0.2c0 0-0.2 0-0.3 0-0.1 0-0.1 0-0.2 0v-0.1c0-0.1 0.1-0.1 0.1-0.1 0.1 0 0.2 0 0.2 0zm0.1 0.5c0 0-0.1 0-0.2 0-0.1 0-0.1 0.1-0.1 0.2 0.1 0 0.1 0 0.1 0v0.1c0 0 0.1 0 0.2 0v-0.1c0.1 0 0.1 0 0.1 0v-0.2c0 0 0 0-0.1 0z"/><path fill-rule="evenodd" class="h" d="m529.3 553.5c0 0.1 0 0.2-0.1 0.3 0 0 0 0-0.1 0v0.1c0 0 0 0-0.1 0.1-0.1 0-0.1 0-0.1 0-0.1 0-0.1 0-0.1 0-0.1 0-0.2-0.1-0.2-0.1v0.5h-0.1v-1.3h0.1v0.1h0.1c0-0.1 0.1-0.1 0.1-0.1h0.2c0.1 0 0.1 0.1 0.1 0.2 0 0 0.1 0 0.1 0.1 0.1 0 0.1 0.1 0.1 0.1zm-0.7-0.2v0.5h0.1c0.1 0.1 0.1 0.1 0.2 0.1 0.1-0.1 0.1-0.1 0.1-0.1 0.1 0 0.1 0 0.1 0q0-0.1 0-0.3c0 0 0 0 0-0.1 0 0 0-0.1-0.1-0.1-0.1 0-0.1 0-0.1 0-0.1 0-0.3 0-0.3 0z"/><path class="a" d="m331.4 156.2l0.8 3v0.1l2 2.1-5.9 0.1-3.4-4 2.9-1.9z"/><path class="d" d="m328.3 161.5l-0.5 4.6"/><path class="d" d="m327.8 155.6l3.6 0.6 0.8 3"/><path class="d" d="m326.4 152.2l1.5 2.3-0.1 1.1"/><path class="d" d="m332.2 159.2v0.1"/><path class="d" d="m332.2 159.3l2 2.1-5.9 0.1"/><path class="d" d="m340.2 162.2l-8-2.9"/><path class="d" d="m332.2 159.3v-0.1"/><path class="d" d="m328.3 161.5l-3.4-4 2.9-1.9"/><path class="a" d="m540 52l6.4 2.7 4.5 0.3v5.5l-1.4 0.8-2.8-4h-5.6l-0.6 1.8h-6.1v0.9h-4.3-5.2l-5-5-6-2.4v-1.9h-5.3l-2.5-2-0.1-2.5 3.4-4.4h5.2l8.4-5.9v-2.6h6.8l6.2 3 6 5.7v0.3 3.9z"/><path class="a" d="m526 20.8l2.6 2.9v1.1l-5.6 5.4v3.1 2.6l-8.4 5.9h-5.2l-3.4 4.4 0.1 2.5 2.5 2h5.3v1.9l6 2.4 5 5h5.2l-3.3 3.1v17.2l-2.7 2.8v4l-1.7 0.2-2.4-3.9h-5.6v-2.4l2.7-3.3-14.3-9.1v-1.5l-11.2-7.4-2.1-4.6 0.8-5.3-2.5-2.2v-3.9l11.2-2v-5.4l2.7-2.9 18.4-10.1 1.8-2.2z"/><path class="a" d="m574 13.1v5.2l3.1 2.5-0.4 2.4 3.8 5.8-3.8 1.2v2.3l-3 4.5 0.4 6.7 2.4 1.7v3.2l-1.5 1.8 0.5 11.2-7.6-8-7.6-6-2.4-2.3-3.5 4.5-9.9-5.1-2.5-2.4v-0.3l-6-5.7-6.2-3h-6.8v-3.1l5.6-5.4v-1.1l-2.6-2.9-4.1 0.3h-0.1l-4.4-2.5 0.6-3.3 10.6-0.8 1.3-0.4v4l3.5 0.5 2.2-3.5h2.5l4.5 5.9 3.5 0.6 3-1.4h6l4.7-6.6 3.1-2.5 2.6-0.5 3.2-4.3 3.8 1.8h3l0.1 3.5z"/><path class="a" d="m560.3 47.6l7.6 6 7.6 8 3.6 5.7v3.5l3.5 4.7-1.5 2.7-2.5 0.6-1.9 2.7-0.5 3.7 2.8 1.7v2.3l-3.9 2.8-2.6 3.9h-3l-4.3-3.9-3.9-5.1-0.5-2.2-4.5 0.3-1.7-1-2.2 0.4-3.6 3.9h-4.6l-10.6-3.3-2.2-4.9-4.3-0.1-0.3 0.3v-17.2l3.3-3.1h4.3v-0.9h6.1l0.6-1.8h5.6l2.8 4 1.4-0.8v-5.5l-4.5-0.3-6.4-2.7 2-5.8v-3.9l2.5 2.4 9.9 5.1 3.5-4.5z"/><path class="i" d="m526.8 80.3v-17.2l3.3-3.1"/><path class="i" d="m521.8 21.1h0.1l4.1-0.3 2.6 2.9v1.1l-5.6 5.4v3.1"/><path class="i" d="m542 42.3l2.5 2.4 9.9 5.1 3.5-4.5 2.4 2.3 7.6 6 7.6 8"/><path class="i" d="m542 42.3v3.9l-2 5.8 6.4 2.7 4.5 0.3v5.5l-1.4 0.8-2.8-4h-5.6l-0.6 1.8h-6.1v0.9h-4.3"/><path class="i" d="m523 33.3h6.8l6.2 3 6 5.7v0.3"/><path class="i" d="m530.1 60h-5.2l-5-5-6-2.4v-1.9h-5.3l-2.5-2-0.1-2.5 3.4-4.4h5.2l8.4-5.9v-2.6"/><path class="f" d="m535.6 15.1l-2.2 3.5-3.5-0.5v-4"/><path class="f" d="m549.1 20.2l-3 1.4-3.5-0.6-4.5-5.9h-2.5"/><path class="f" d="m579.1 67.3v3.5l3.5 4.7-1.5 2.7-2.5 0.6-1.9 2.7-0.5 3.7 2.8 1.7v2.3l-3.9 2.8-2.6 3.9h-3l-4.3-3.9-3.9-5.1-0.5-2.2-4.5 0.3-1.7-1-2.2 0.4-3.6 3.9h-4.6l-10.6-3.3-2.2-4.9-4.3-0.1-0.3 0.3-2.7 2.8v4l-1.7 0.2-2.4-3.9h-5.6v-2.4l2.7-3.3-14.3-9.1v-1.5l-11.2-7.4-2.1-4.6 0.8-5.3-2.5-2.2v-3.9l11.2-2v-5.4l2.7-2.9 18.4-10.1 1.8-2.2h-0.1l-4.4-2.5 0.6-3.3"/><path class="f" d="m579.1 67.3l-3.6-5.7"/><path class="f" d="m529.9 14.1l-1.3 0.4-10.6 0.8"/><path class="f" d="m549.1 20.2h6l4.7-6.6 3.1-2.5 2.6-0.5 3.2-4.3 3.8 1.8h3l0.1 3.5-1.6 1.5v5.2l3.1 2.5-0.4 2.4 3.8 5.8-3.8 1.2v2.3l-3 4.5 0.4 6.7 2.4 1.7v3.2l-1.5 1.8 0.5 11.2"/></svg>