<?xml version="1.0" encoding="UTF-8" standalone="no"?>
<svg
   xmlns:dc="http://purl.org/dc/elements/1.1/"
   xmlns:cc="http://creativecommons.org/ns#"
   xmlns:rdf="http://www.w3.org/1999/02/22-rdf-syntax-ns#"
   xmlns:svg="http://www.w3.org/2000/svg"
   xmlns="http://www.w3.org/2000/svg"
   xmlns:sodipodi="http://sodipodi.sourceforge.net/DTD/sodipodi-0.dtd"
   xmlns:inkscape="http://www.inkscape.org/namespaces/inkscape"
   id="Calque_1"
   data-name="Calque 1"
   viewBox="0 0 328.77097 33.130003"
   version="1.1"
   sodipodi:docname="Logo RDG.svg"
   width="328.77097"
   height="33.130001"
   inkscape:version="0.92.5 (2060ec1f9f, 2020-04-08)">
  <metadata
     id="metadata4243">
    <rdf:RDF>
      <cc:Work
         rdf:about="">
        <dc:format>image/svg+xml</dc:format>
        <dc:type
           rdf:resource="http://purl.org/dc/dcmitype/StillImage" />
        <dc:title></dc:title>
      </cc:Work>
    </rdf:RDF>
  </metadata>
  <sodipodi:namedview
     pagecolor="#ffffff"
     bordercolor="#666666"
     borderopacity="1"
     objecttolerance="10"
     gridtolerance="10"
     guidetolerance="10"
     inkscape:pageopacity="0"
     inkscape:pageshadow="2"
     inkscape:window-width="1920"
     inkscape:window-height="1043"
     id="namedview4241"
     showgrid="false"
     inkscape:zoom="3.478"
     inkscape:cx="94.37"
     inkscape:cy="15.075004"
     inkscape:window-x="0"
     inkscape:window-y="0"
     inkscape:window-maximized="1"
     inkscape:current-layer="Calque_1" />
  <defs
     id="defs4000">
    <style
       id="style3998">
      .cls-1 {
        fill: #3c3c3b;
      }

      .cls-2 {
        fill: #fff;
      }

      .cls-3 {
        fill: #2a3273;
      }

      .cls-4 {
        fill: #e10c15;
      }

      .cls-5 {
        fill: #050506;
      }

      .cls-6 {
        fill: #090a0b;
      }

      .cls-7 {
        fill: #0d0e0e;
      }
    </style>
  </defs>
  <g
     id="g4020"
     transform="translate(-155.63,-52.16)">
    <path
       class="cls-1"
       d="m 155.67,61.31 h 2 v 2.21 a 7.06,7.06 0 0 1 1.89,-2 3.78,3.78 0 0 1 2.07,-0.64 3.59,3.59 0 0 1 1.74,0.51 l -1,1.63 a 2.48,2.48 0 0 0 -2.93,0.54 5,5 0 0 0 -1.44,2.52 22.94,22.94 0 0 0 -0.37,5.21 v 5.11 h -2 z"
       id="path4002"
       inkscape:connector-curvature="0"
       style="fill:#3c3c3b" />
    <path
       class="cls-1"
       d="m 178.15,71.39 1.65,0.86 a 8.83,8.83 0 0 1 -1.87,2.55 7.46,7.46 0 0 1 -2.4,1.48 8.37,8.37 0 0 1 -3,0.5 7.34,7.34 0 0 1 -5.84,-2.41 8.14,8.14 0 0 1 -2.1,-5.47 8.05,8.05 0 0 1 1.78,-5.12 7.32,7.32 0 0 1 6,-2.85 7.55,7.55 0 0 1 6.23,2.92 8.15,8.15 0 0 1 1.71,5.15 H 166.6 a 6.14,6.14 0 0 0 1.69,4.31 5.46,5.46 0 0 0 4.06,1.69 6.73,6.73 0 0 0 2.26,-0.4 6.06,6.06 0 0 0 1.87,-1.07 8.82,8.82 0 0 0 1.67,-2.14 z m 0,-4.06 a 6.35,6.35 0 0 0 -1.15,-2.48 5.37,5.37 0 0 0 -2,-1.5 6.08,6.08 0 0 0 -2.59,-0.57 5.62,5.62 0 0 0 -3.85,1.43 6.44,6.44 0 0 0 -1.79,3.12 z"
       id="path4004"
       inkscape:connector-curvature="0"
       style="fill:#3c3c3b" />
    <path
       class="cls-1"
       d="m 199,64.45 -1.56,1 a 6.53,6.53 0 0 0 -5.44,-2.69 6.42,6.42 0 0 0 -4.63,1.77 5.78,5.78 0 0 0 -1.84,4.3 6.14,6.14 0 0 0 0.85,3.11 5.84,5.84 0 0 0 2.32,2.25 7.05,7.05 0 0 0 8.79,-1.84 l 1.56,1 a 7.32,7.32 0 0 1 -2.94,2.53 9.38,9.38 0 0 1 -4.19,0.89 8.29,8.29 0 0 1 -6,-2.27 7.36,7.36 0 0 1 -2.38,-5.5 7.86,7.86 0 0 1 1.11,-4.07 7.77,7.77 0 0 1 3.06,-2.93 9,9 0 0 1 4.35,-1 9.53,9.53 0 0 1 2.92,0.45 8.47,8.47 0 0 1 2.39,1.19 6.75,6.75 0 0 1 1.63,1.81 z"
       id="path4006"
       inkscape:connector-curvature="0"
       style="fill:#3c3c3b" />
    <path
       class="cls-1"
       d="m 203.09,55.49 h 2 V 64 a 8.35,8.35 0 0 1 2.62,-2.33 6.43,6.43 0 0 1 3.09,-0.76 5.45,5.45 0 0 1 3,0.85 5.18,5.18 0 0 1 2,2.31 12.14,12.14 0 0 1 0.63,4.54 v 7.79 h -2 v -7.2 a 18.19,18.19 0 0 0 -0.21,-3.48 3.61,3.61 0 0 0 -3.84,-3 4.83,4.83 0 0 0 -3.18,1.17 5.44,5.44 0 0 0 -1.86,2.88 19.56,19.56 0 0 0 -0.28,4.11 v 5.52 h -2 z"
       id="path4008"
       inkscape:connector-curvature="0"
       style="fill:#3c3c3b" />
    <path
       class="cls-1"
       d="m 233.69,71.39 1.65,0.86 a 8.83,8.83 0 0 1 -1.87,2.55 7.46,7.46 0 0 1 -2.4,1.48 8.37,8.37 0 0 1 -3,0.5 7.31,7.31 0 0 1 -5.83,-2.41 8.2,8.2 0 0 1 -0.33,-10.59 7.32,7.32 0 0 1 6,-2.85 7.55,7.55 0 0 1 6.23,2.92 8.15,8.15 0 0 1 1.71,5.15 h -13.71 a 6.1,6.1 0 0 0 1.7,4.31 5.43,5.43 0 0 0 4,1.68 6.73,6.73 0 0 0 2.26,-0.4 6,6 0 0 0 1.9,-1.06 8.82,8.82 0 0 0 1.69,-2.14 z m 0,-4.06 a 6.35,6.35 0 0 0 -1.14,-2.48 5.42,5.42 0 0 0 -2,-1.5 6.15,6.15 0 0 0 -2.6,-0.57 5.62,5.62 0 0 0 -3.85,1.43 6.36,6.36 0 0 0 -1.78,3.12 z"
       id="path4010"
       inkscape:connector-curvature="0"
       style="fill:#3c3c3b" />
    <path
       class="cls-1"
       d="m 239.05,61.31 h 2 v 2.21 a 7.06,7.06 0 0 1 1.89,-2 3.73,3.73 0 0 1 2.07,-0.64 3.65,3.65 0 0 1 1.74,0.51 l -1,1.63 a 2.48,2.48 0 0 0 -2.93,0.54 5,5 0 0 0 -1.39,2.47 23.77,23.77 0 0 0 -0.36,5.21 v 5.16 h -2 z"
       id="path4012"
       inkscape:connector-curvature="0"
       style="fill:#3c3c3b" />
    <path
       class="cls-1"
       d="m 263.49,64.45 -1.56,1 a 6.53,6.53 0 0 0 -5.49,-2.64 6.38,6.38 0 0 0 -4.62,1.77 5.74,5.74 0 0 0 -1.84,4.3 6.13,6.13 0 0 0 0.84,3.11 5.9,5.9 0 0 0 2.32,2.25 6.79,6.79 0 0 0 3.31,0.81 6.71,6.71 0 0 0 5.48,-2.65 l 1.56,1 a 7.36,7.36 0 0 1 -2.93,2.53 9.46,9.46 0 0 1 -4.2,0.89 8.31,8.31 0 0 1 -6,-2.27 A 7.36,7.36 0 0 1 248,69 a 7.86,7.86 0 0 1 1.11,-4.07 7.77,7.77 0 0 1 3.05,-2.93 9,9 0 0 1 4.36,-1 9.58,9.58 0 0 1 2.92,0.45 8.54,8.54 0 0 1 2.38,1.19 6.6,6.6 0 0 1 1.67,1.81 z"
       id="path4014"
       inkscape:connector-curvature="0"
       style="fill:#3c3c3b" />
    <path
       class="cls-1"
       d="m 267.54,55.49 h 2 V 64 a 8.46,8.46 0 0 1 2.62,-2.33 6.47,6.47 0 0 1 3.1,-0.76 5.45,5.45 0 0 1 3,0.85 5.22,5.22 0 0 1 1.95,2.31 12.14,12.14 0 0 1 0.63,4.54 v 7.79 h -2 v -7.2 a 18.19,18.19 0 0 0 -0.21,-3.48 3.89,3.89 0 0 0 -1.32,-2.25 4,4 0 0 0 -2.52,-0.76 4.85,4.85 0 0 0 -3.18,1.17 5.44,5.44 0 0 0 -1.86,2.88 20.29,20.29 0 0 0 -0.28,4.11 v 5.53 h -2 z"
       id="path4016"
       inkscape:connector-curvature="0"
       style="fill:#3c3c3b" />
    <path
       class="cls-1"
       d="m 298.15,71.39 1.65,0.86 a 8.85,8.85 0 0 1 -1.88,2.55 7.46,7.46 0 0 1 -2.4,1.48 8.34,8.34 0 0 1 -3,0.5 7.31,7.31 0 0 1 -5.83,-2.41 8.14,8.14 0 0 1 -2.1,-5.47 8,8 0 0 1 1.78,-5.12 7.31,7.31 0 0 1 6,-2.85 7.53,7.53 0 0 1 6.22,2.92 8.15,8.15 0 0 1 1.71,5.15 h -13.71 a 6.14,6.14 0 0 0 1.7,4.31 5.43,5.43 0 0 0 4,1.68 6.78,6.78 0 0 0 2.27,-0.4 6.18,6.18 0 0 0 1.87,-1.07 9.07,9.07 0 0 0 1.72,-2.13 z m 0,-4.06 a 6.5,6.5 0 0 0 -1.15,-2.48 5.42,5.42 0 0 0 -2,-1.5 6.11,6.11 0 0 0 -2.59,-0.57 5.62,5.62 0 0 0 -3.86,1.43 6.43,6.43 0 0 0 -1.78,3.12 z"
       id="path4018"
       inkscape:connector-curvature="0"
       style="fill:#3c3c3b" />
  </g>
  <path
     class="cls-1"
     d="m 148.7,20.98 a 1.7,1.7 0 0 1 1.21,0.48 1.53,1.53 0 0 1 0.49,1.16 1.56,1.56 0 0 1 -0.49,1.16 1.71,1.71 0 0 1 -1.21,0.49 1.67,1.67 0 0 1 -1.2,-0.49 1.56,1.56 0 0 1 -0.49,-1.16 1.53,1.53 0 0 1 0.49,-1.16 1.66,1.66 0 0 1 1.2,-0.48 z"
     id="path4022"
     inkscape:connector-curvature="0"
     style="fill:#3c3c3b" />
  <g
     id="g4032"
     transform="translate(-155.63,-52.16)">
    <path
       class="cls-1"
       d="M 319.18,55.54 H 323 v 20.83 h -3.77 v -1.59 a 7.32,7.32 0 0 1 -2.23,1.51 6.16,6.16 0 0 1 -2.41,0.46 6.68,6.68 0 0 1 -5,-2.25 7.88,7.88 0 0 1 -2.13,-5.62 8.06,8.06 0 0 1 2.06,-5.7 6.55,6.55 0 0 1 5,-2.23 6.37,6.37 0 0 1 2.54,0.52 6.91,6.91 0 0 1 2.12,1.53 z m -4,8.89 a 3.83,3.83 0 0 0 -2.91,1.24 5,5 0 0 0 0,6.37 3.82,3.82 0 0 0 2.9,1.26 3.89,3.89 0 0 0 2.95,-1.23 4.54,4.54 0 0 0 1.17,-3.24 4.39,4.39 0 0 0 -1.17,-3.18 3.94,3.94 0 0 0 -2.9,-1.22 z"
       id="path4024"
       inkscape:connector-curvature="0"
       style="fill:#3c3c3b" />
    <path
       class="cls-1"
       d="m 338.39,61.34 h 3.77 v 15 h -3.77 v -1.56 a 7.32,7.32 0 0 1 -2.21,1.51 6.16,6.16 0 0 1 -2.41,0.46 6.68,6.68 0 0 1 -5,-2.25 7.88,7.88 0 0 1 -2.13,-5.62 8.06,8.06 0 0 1 2.06,-5.7 6.55,6.55 0 0 1 5,-2.23 6.37,6.37 0 0 1 2.54,0.52 6.91,6.91 0 0 1 2.15,1.53 z m -4,3.09 a 3.83,3.83 0 0 0 -2.91,1.24 5,5 0 0 0 0,6.37 3.82,3.82 0 0 0 2.9,1.26 3.89,3.89 0 0 0 2.95,-1.23 4.54,4.54 0 0 0 1.17,-3.24 4.39,4.39 0 0 0 -1.17,-3.18 3.94,3.94 0 0 0 -2.9,-1.22 z"
       id="path4026"
       inkscape:connector-curvature="0"
       style="fill:#3c3c3b" />
    <path
       class="cls-1"
       d="m 347,55.8 h 3.77 v 5.54 H 353 v 3.25 h -2.23 V 76.37 H 347 V 64.59 h -2 v -3.25 h 2 z"
       id="path4028"
       inkscape:connector-curvature="0"
       style="fill:#3c3c3b" />
    <path
       class="cls-1"
       d="m 366.65,61.34 h 3.77 v 15 h -3.77 v -1.56 a 7.48,7.48 0 0 1 -2.22,1.51 6.15,6.15 0 0 1 -2.4,0.46 6.71,6.71 0 0 1 -5,-2.25 7.92,7.92 0 0 1 -2.12,-5.62 8.06,8.06 0 0 1 2.05,-5.7 6.57,6.57 0 0 1 5,-2.23 6.33,6.33 0 0 1 2.53,0.52 6.84,6.84 0 0 1 2.2,1.53 z m -4,3.09 a 3.82,3.82 0 0 0 -2.9,1.24 4.92,4.92 0 0 0 0,6.37 3.8,3.8 0 0 0 2.9,1.26 3.89,3.89 0 0 0 2.94,-1.23 4.54,4.54 0 0 0 1.17,-3.24 4.39,4.39 0 0 0 -1.17,-3.18 3.93,3.93 0 0 0 -2.91,-1.22 z"
       id="path4030"
       inkscape:connector-curvature="0"
       style="fill:#3c3c3b" />
  </g>
  <path
     class="cls-1"
     d="m 221.59,20.98 a 1.66,1.66 0 0 1 1.2,0.48 1.54,1.54 0 0 1 0.5,1.16 1.57,1.57 0 0 1 -0.5,1.16 1.71,1.71 0 0 1 -2.4,0 1.57,1.57 0 0 1 -0.5,-1.16 1.54,1.54 0 0 1 0.5,-1.16 1.66,1.66 0 0 1 1.2,-0.48 z"
     id="path4034"
     inkscape:connector-curvature="0"
     style="fill:#3c3c3b" />
  <g
     id="g4044"
     transform="translate(-155.63,-52.16)">
    <path
       class="cls-1"
       d="m 393.78,61.34 h 3.76 v 12.87 q 0,3.81 -1.53,5.61 c -1.38,1.62 -3.44,2.43 -6.21,2.43 A 10.79,10.79 0 0 1 386.09,81.7 6.76,6.76 0 0 1 383.55,80.08 6.68,6.68 0 0 1 382,77.47 h 4.15 a 3.32,3.32 0 0 0 1.42,1 5.82,5.82 0 0 0 2.06,0.33 5.48,5.48 0 0 0 2.45,-0.47 2.87,2.87 0 0 0 1.3,-1.22 6,6 0 0 0 0.38,-2.57 6.17,6.17 0 0 1 -2.08,1.43 6.65,6.65 0 0 1 -2.48,0.44 6.82,6.82 0 0 1 -5.11,-2.18 8.48,8.48 0 0 1 0.13,-11.27 6.59,6.59 0 0 1 4.78,-1.96 6.33,6.33 0 0 1 2.45,0.48 7.7,7.7 0 0 1 2.33,1.52 z m -3.91,3.14 a 3.93,3.93 0 0 0 -2.94,1.19 4.52,4.52 0 0 0 0,6.08 4,4 0 0 0 3,1.21 3.89,3.89 0 0 0 2.9,-1.18 4.67,4.67 0 0 0 0,-6.13 4,4 0 0 0 -2.96,-1.17 z"
       id="path4036"
       inkscape:connector-curvature="0"
       style="fill:#3c3c3b" />
    <path
       class="cls-1"
       d="m 408.41,61 a 8,8 0 0 1 4,1.07 7.78,7.78 0 0 1 4,6.82 8,8 0 0 1 -1.06,4 7.54,7.54 0 0 1 -2.88,2.89 7.9,7.9 0 0 1 -4,1 7.49,7.49 0 0 1 -5.52,-2.3 7.92,7.92 0 0 1 5.46,-13.48 z m 0.06,3.55 a 3.88,3.88 0 0 0 -2.93,1.23 4.31,4.31 0 0 0 -1.16,3.12 4.42,4.42 0 0 0 1.15,3.1 4.13,4.13 0 0 0 5.87,0 4.84,4.84 0 0 0 0,-6.31 3.92,3.92 0 0 0 -2.93,-1.19 z"
       id="path4038"
       inkscape:connector-curvature="0"
       style="fill:#3c3c3b" />
    <path
       class="cls-1"
       d="m 419.44,61.34 h 3.81 v 7.24 a 10.08,10.08 0 0 0 0.29,2.93 2.58,2.58 0 0 0 0.94,1.28 3,3 0 0 0 3.18,0 2.62,2.62 0 0 0 1,-1.32 9.94,9.94 0 0 0 0.24,-2.78 v -7.35 h 3.77 v 6.37 a 15.37,15.37 0 0 1 -0.63,5.38 5.86,5.86 0 0 1 -2.23,2.72 6.88,6.88 0 0 1 -3.76,0.94 6.65,6.65 0 0 1 -4,-1.1 5.86,5.86 0 0 1 -2.15,-3.08 18.88,18.88 0 0 1 -0.44,-5 z"
       id="path4040"
       inkscape:connector-curvature="0"
       style="fill:#3c3c3b" />
    <path
       class="cls-1"
       d="m 434.82,61.34 h 3.84 l 3.8,8.87 3.79,-8.87 h 3.82 l -6.4,15 h -2.44 z"
       id="path4042"
       inkscape:connector-curvature="0"
       style="fill:#3c3c3b" />
  </g>
  <path
     class="cls-1"
     d="m 299.02,20.98 a 1.66,1.66 0 0 1 1.2,0.48 1.54,1.54 0 0 1 0.5,1.16 1.57,1.57 0 0 1 -0.5,1.16 1.71,1.71 0 0 1 -2.4,0 1.57,1.57 0 0 1 -0.5,-1.16 1.54,1.54 0 0 1 0.5,-1.16 1.66,1.66 0 0 1 1.2,-0.48 z"
     id="path4046"
     inkscape:connector-curvature="0"
     style="fill:#3c3c3b" />
  <g
     id="g4052"
     transform="translate(-155.63,-52.16)">
    <path
       class="cls-1"
       d="m 464.66,61.7 a 14.28,14.28 0 0 1 2.87,-6.81 7.49,7.49 0 0 1 4.89,-2.73 c 1.19,0 2.08,0.85 2.05,1.47 a 2.09,2.09 0 0 1 -0.86,1.4 0.59,0.59 0 0 1 -0.85,0 3.15,3.15 0 0 0 -2.15,-1.2 c -1.27,0 -2.3,1.57 -3.32,7.9 h 3.86 l -0.72,1.06 -3.43,0.31 c -0.61,3.76 -1,5.85 -1.74,9.64 -1.2,5.89 -2.46,8.45 -4.34,10.4 a 5.76,5.76 0 0 1 -3.87,2.15 c -1,0 -2.15,-0.68 -2.12,-1.47 a 2.2,2.2 0 0 1 0.93,-1.43 c 0.27,-0.24 0.44,-0.21 0.65,0 a 3.65,3.65 0 0 0 2.15,0.85 1.94,1.94 0 0 0 1.47,-0.68 c 0.45,-0.51 1.27,-2 2.4,-8.59 0.82,-4.71 1.26,-7.59 1.84,-10.94 h -2.84 l -0.1,-0.37 1,-1 z"
       id="path4048"
       inkscape:connector-curvature="0"
       style="fill:#3c3c3b" />
    <path
       class="cls-1"
       d="m 472.69,64.5 c 1.74,-2 3.86,-3.35 4.79,-3.35 0.93,0 0.89,1.57 0.37,4 l -0.34,1.71 h 0.1 c 1.75,-3.35 3.77,-5.68 5.13,-5.68 a 1.83,1.83 0 0 1 1.47,0.86 1.51,1.51 0 0 1 0,1.47 3.59,3.59 0 0 1 -0.89,1 c -0.31,0.2 -0.58,0.2 -0.75,0 a 1.6,1.6 0 0 0 -1.16,-0.58 c -0.41,0 -1,0.34 -1.75,1.44 a 23.66,23.66 0 0 0 -2.43,4.24 c -0.54,2.29 -0.95,4.44 -1.36,6.7 a 11.88,11.88 0 0 0 -2.43,0.62 l -0.28,-0.28 c 0.89,-3.66 1.85,-7.86 2.5,-11.52 0.21,-1.13 0.21,-1.47 -0.07,-1.47 a 6.76,6.76 0 0 0 -2.43,1.64 z"
       id="path4050"
       inkscape:connector-curvature="0"
       style="fill:#3c3c3b" />
  </g>
</svg>
