<?xml version="1.0" encoding="UTF-8"?><svg id="e" xmlns="http://www.w3.org/2000/svg" xmlns:xlink="http://www.w3.org/1999/xlink" viewBox="0 0 2918.7 608.06"><defs><style>.am{fill:url(#ah);}.am,.an,.ao,.ap,.aq,.ar,.as,.at,.au,.av,.aw,.ax,.ay,.az,.ba,.bb,.bc,.bd,.be,.bf,.bg,.bh,.bi{opacity:.58;}.an{fill:url(#ae);}.ao{fill:url(#ag);}.bj{fill:url(#g);}.bj,.bk{opacity:.2;}.ap{fill:url(#aa);}.bl{fill:url(#r);}.bl,.bm,.bn,.bo{opacity:.18;}.bp,.bq,.br,.bs,.bt,.bu,.bv,.bw{fill:none;}.bp,.bq,.br,.bs,.bt,.bv,.bw{stroke-miterlimit:10;}.bp,.br{stroke:#fff;}.aq{fill:url(#f);}.ar{fill:url(#u);}.as{fill:url(#ab);}.at{fill:url(#n);}.au{fill:url(#al);}.bq{stroke:#b3b3b3;}.av{fill:url(#l);}.aw{fill:url(#ac);}.bx{opacity:.8;}.bm{fill:url(#q);}.br,.bv{stroke-width:2px;}.ay{fill:url(#o);}.bs{stroke:#59baad;}.by{fill:url(#v);}.bn{fill:url(#s);}.az{fill:url(#z);}.bz{fill:url(#x);}.ca{fill:#12b09d;}.ba{fill:url(#ad);}.bb{fill:url(#ai);}.bt,.bv{stroke:#bde3de;}.bc{fill:url(#j);}.bo{fill:url(#t);}.bd{fill:url(#i);}.be{fill:url(#ak);}.bf{fill:url(#h);}.bk{fill:url(#p);}.cb{fill:url(#w);}.bg{fill:url(#aj);}.bw{stroke:#f2f2f2;}.cc{fill:#59baad;}.bh{fill:url(#m);}.bi{fill:url(#k);}</style><radialGradient id="f" cx="2387.85" cy="3696.22" fx="2387.85" fy="3696.22" r="80.52" gradientTransform="translate(352.34 -1344.87) scale(.38)" gradientUnits="userSpaceOnUse"><stop offset=".26" stop-color="#008e80"/><stop offset=".36" stop-color="#048e80" stop-opacity=".96"/><stop offset=".49" stop-color="#119081" stop-opacity=".84"/><stop offset=".63" stop-color="#269283" stop-opacity=".66"/><stop offset=".64" stop-color="#299384" stop-opacity=".64"/><stop offset=".71" stop-color="#309687" stop-opacity=".6"/><stop offset=".79" stop-color="#459f92" stop-opacity=".5"/><stop offset=".87" stop-color="#68ada3" stop-opacity=".34"/><stop offset=".96" stop-color="#98c2bb" stop-opacity=".11"/><stop offset="1" stop-color="#afccc7" stop-opacity="0"/></radialGradient><radialGradient id="g" cx="6028.24" cy="3029.88" fx="6028.24" fy="3029.88" r="71.58" gradientTransform="translate(328.47 -1172) scale(.41)" xlink:href="#f"/><radialGradient id="h" cx="3663.28" cy="2276.11" fx="3663.28" fy="2276.11" r="35.47" gradientTransform="translate(-348.07 -927.25) scale(.65)" xlink:href="#f"/><radialGradient id="i" cx="5192.94" cy="3558.24" fx="5192.94" fy="3558.24" r="35.54" gradientTransform="translate(352.34 -1344.87) scale(.38)" gradientUnits="userSpaceOnUse"><stop offset=".26" stop-color="#fff"/><stop offset=".33" stop-color="#fdfdfd" stop-opacity=".98"/><stop offset=".42" stop-color="#f8fafa" stop-opacity=".92"/><stop offset=".52" stop-color="#f0f5f4" stop-opacity=".82"/><stop offset=".63" stop-color="#e5eeed" stop-opacity=".68"/><stop offset=".75" stop-color="#d7e5e3" stop-opacity=".5"/><stop offset=".87" stop-color="#c5dad6" stop-opacity=".28"/><stop offset=".99" stop-color="#b1cdc8" stop-opacity=".03"/><stop offset="1" stop-color="#afccc7" stop-opacity="0"/></radialGradient><radialGradient id="j" cx="4263.22" cy="3657.52" fx="4263.22" fy="3657.52" r="80.52" xlink:href="#i"/><radialGradient id="k" cx="18.38" cy="3906.35" fx="18.38" fy="3906.35" r="120.4" xlink:href="#i"/><radialGradient id="l" cx="6170.66" cy="4511.67" fx="6170.66" fy="4511.67" r="35.54" xlink:href="#i"/><radialGradient id="m" cx="1154.71" cy="4931.24" fx="1154.71" fy="4931.24" r="34.8" xlink:href="#i"/><radialGradient id="n" cx="266.88" cy="3824.01" fx="266.88" fy="3824.01" r="35.6" xlink:href="#f"/><radialGradient id="o" cx="683.74" cy="2984.77" fx="683.74" fy="2984.77" r="71.58" gradientTransform="translate(151.06 -1097.08) scale(.48)" xlink:href="#f"/><radialGradient id="p" cx="4816.94" cy="2866.36" fx="4816.94" fy="2866.36" r="71.58" gradientTransform="translate(328.47 -1172) scale(.41)" xlink:href="#f"/><radialGradient id="q" cx="4168.83" cy="4475.3" fx="4168.83" fy="4475.3" r="35.23" xlink:href="#f"/><radialGradient id="r" cx="1511.2" cy="4902" fx="1511.2" fy="4902" r="35.23" xlink:href="#f"/><radialGradient id="s" cx="210.04" cy="4609.63" fx="210.04" fy="4609.63" r="35.23" xlink:href="#f"/><radialGradient id="t" cx="5206.6" cy="5096.91" fx="5206.6" fy="5096.91" r="35.23" xlink:href="#f"/><radialGradient id="u" cx="175.1" cy="4773.37" fx="175.1" fy="4773.37" r="82.21" xlink:href="#i"/><linearGradient id="v" x1="248.47" y1="449.78" x2="803.03" y2="449.78" gradientTransform="matrix(1, 0, 0, 1, 0, 0)" gradientUnits="userSpaceOnUse"><stop offset=".26" stop-color="#008e80"/><stop offset="1" stop-color="#008e80" stop-opacity="1"/></linearGradient><linearGradient id="w" x1="2504.47" y1="208.08" x2="2695.82" y2="208.08" xlink:href="#v"/><linearGradient id="x" x1="2810.47" y1="195.65" x2="2922.95" y2="195.65" xlink:href="#v"/><radialGradient id="z" cx="2348.3" cy="465.34" fx="2348.3" fy="465.34" r="48.2" gradientTransform="translate(-25.13 100.52) scale(1.04)" gradientUnits="userSpaceOnUse"><stop offset=".26" stop-color="#fff"/><stop offset=".43" stop-color="#fefefe" stop-opacity=".99"/><stop offset=".56" stop-color="#fdfefd" stop-opacity=".95"/><stop offset=".68" stop-color="#fbfcfc" stop-opacity=".9"/><stop offset=".79" stop-color="#f7fbfa" stop-opacity=".82"/><stop offset=".85" stop-color="#f6faf9" stop-opacity=".76"/><stop offset=".86" stop-color="#f2f7f6" stop-opacity=".73"/><stop offset=".89" stop-color="#e9f2f0" stop-opacity=".63"/><stop offset=".92" stop-color="#dbe8e6" stop-opacity=".47"/><stop offset=".96" stop-color="#c6dbd7" stop-opacity=".26"/><stop offset="1" stop-color="#afccc7" stop-opacity="0"/></radialGradient><radialGradient id="aa" cx="3753.81" cy="1795" fx="3753.81" fy="1795" r="48.2" gradientTransform="translate(207 -751.82) scale(.65)" xlink:href="#z"/><radialGradient id="ab" cx="3285.89" cy="1474.2" fx="3285.89" fy="1474.2" r="48.2" gradientTransform="translate(143.34 -522.56) scale(.76)" xlink:href="#z"/><radialGradient id="ac" cx="4152.3" cy="2066.99" fx="4152.3" fy="2066.99" r="48.2" gradientTransform="translate(222.22 -781.87) scale(.64)" xlink:href="#z"/><radialGradient id="ad" cx="5167.51" cy="4900.85" fx="5167.51" fy="4900.85" r="48.2" gradientTransform="translate(352.34 -1344.87) scale(.38)" xlink:href="#z"/><radialGradient id="ae" cx="6413.76" cy="4673.64" fx="6413.76" fy="4673.64" r="48.2" gradientTransform="translate(352.34 -1344.87) scale(.38)" xlink:href="#z"/><radialGradient id="ag" cx="-191.1" cy="1312.23" fx="-191.1" fy="1312.23" r="48.2" gradientTransform="translate(222.22 -781.87) scale(.64)" xlink:href="#z"/><radialGradient id="ah" cx="193.2" cy="-298.25" fx="193.2" fy="-298.25" r="48.2" gradientTransform="translate(-236.7 725.93) scale(1.37)" xlink:href="#z"/><radialGradient id="ai" cx="-359.42" cy="3797.82" fx="-359.42" fy="3797.82" r="48.2" xlink:href="#f"/><radialGradient id="aj" cx="-191.87" cy="4969.69" fx="-191.87" fy="4969.69" r="48.2" gradientTransform="translate(352.34 -1344.87) scale(.38)" xlink:href="#z"/><radialGradient id="ak" cx="-384.66" cy="4890.51" fx="-384.66" fy="4890.51" r="48.2" gradientTransform="translate(352.34 -1344.87) scale(.38)" xlink:href="#z"/><radialGradient id="al" cx="-221.28" cy="4299.7" fx="-221.28" fy="4299.7" r="48.2" gradientTransform="translate(352.34 -1344.87) scale(.38)" xlink:href="#z"/></defs><rect class="ca" x="-64.05" y="-37.46" width="3118" height="713"/><circle class="aq" cx="1258.91" cy="58.44" r="30.57"/><circle class="bj" cx="2811.29" cy="75.9" r="29.48"/><ellipse class="bf" cx="2029.33" cy="540.2" rx="23.02" ry="22.87"/><circle class="bd" cx="2323.9" cy="6.05" r="13.49"/><circle class="bc" cx="1970.92" cy="43.75" r="30.57"/><circle class="bi" cx="359.32" cy="138.22" r="45.71"/><circle class="av" cx="2695.1" cy="368.03" r="13.49"/><circle class="bh" cx="790.74" cy="527.33" r="13.21"/><circle class="at" cx="453.66" cy="106.96" r="13.52"/><ellipse class="ay" cx="477.48" cy="305.98" rx="34.17" ry="33.65"/><circle class="bk" cx="2312.39" cy="8.55" r="29.48"/><circle class="bm" cx="1935.08" cy="354.23" r="13.38"/><circle class="bl" cx="926.08" cy="516.23" r="13.38"/><circle class="bn" cx="432.08" cy="405.23" r="13.38"/><circle class="bo" cx="2329.08" cy="590.23" r="13.38"/><circle class="ar" cx="418.82" cy="467.39" r="31.21"/><polygon class="bs" points="-10.17 -80.4 -176.99 28.29 -4.49 152.6 158.03 32.41 -10.17 -80.4"/><polygon class="bs" points="223.94 368.53 57.11 477.21 229.62 601.52 392.14 481.33 223.94 368.53"/><g class="ax"><polygon class="by" points="524.62 256.95 248.47 436.85 534.02 642.61 803.03 443.67 524.62 256.95"/></g><g class="ax"><polygon class="cb" points="2599.75 141.54 2504.47 203.61 2603 274.61 2695.82 205.97 2599.75 141.54"/></g><g class="ax"><polygon class="bz" points="2866.48 156.54 2810.47 193.03 2868.39 234.77 2922.95 194.42 2866.48 156.54"/></g><polygon class="bv" points="2737.94 -9.47 2571.11 99.21 2743.62 223.52 2906.14 103.33 2737.94 -9.47"/><polygon class="bt" points="1018.94 361.53 852.11 470.21 1024.62 594.52 1187.14 474.33 1018.94 361.53"/><polygon class="bs" points="3000.39 100.53 2731.11 275.95 3009.56 476.6 3271.89 282.61 3000.39 100.53"/><polygon class="cc" points="378.13 270.1 307.65 316.02 380.53 368.54 449.2 317.76 378.13 270.1"/><polygon class="cc" points="1708.72 534.6 1665.11 563.02 1710.21 595.52 1752.7 564.1 1708.72 534.6"/><polygon class="cc" points="467.79 21.6 410.11 59.18 469.76 102.17 525.95 60.61 467.79 21.6"/><g class="bx"><polygon class="bs" points="609.22 504.1 565.61 532.52 610.71 565.02 653.2 533.6 609.22 504.1"/></g><polygon class="bw" points="2424.5 3.39 2354.18 49.2 2426.89 101.59 2495.39 50.94 2424.5 3.39"/><polygon class="bq" points="2176.18 81.39 2062.18 155.66 2180.06 240.6 2291.12 158.48 2176.18 81.39"/><polygon class="bp" points="1872.18 486.39 1758.18 560.66 1876.06 645.6 1987.12 563.48 1872.18 486.39"/><g><g id="y" class="ax"><polygon class="br" points="2489.39 392.93 2314.24 515.79 2153.48 705.31 2163.93 983.72 2227.98 1152.32 2350.84 1185 2407.04 1318.32 2550.82 1323.55 2693.29 1336.62 2882.81 1220.29 3047.5 1022.93 3038.35 768.05 2982.14 575.92 2869.74 543.24 2783.47 420.38 2650.15 416.46 2489.39 392.93"/><polygon class="br" points="2216.21 728.84 2430.57 586.37 2314.24 515.79 2650.15 416.46 2635.78 592.91 2869.74 543.24 2796.54 790.27 3038.35 768.05 2984.76 995.48 2722.04 1051.68 2882.81 1220.29 2550.82 1323.55 2519.45 1102.66 2350.84 1185 2289.41 994.17 2163.93 983.72 2216.21 728.84"/><polyline class="br" points="2314.24 515.79 2216.21 728.84 2153.48 705.31"/><polyline class="br" points="2430.57 586.37 2403.12 743.22 2289.41 994.17"/><polyline class="br" points="2882.81 1220.29 2984.76 995.48 2796.54 790.27 2722.04 1051.68 2519.45 1102.66 2289.41 994.17 2216.21 728.84 2403.12 743.22 2430.57 586.37 2650.15 416.46 2869.74 543.24 3036.42 761.48"/><polyline class="br" points="2635.78 592.91 2403.12 743.22 2519.45 1102.66 2796.54 790.27 2635.78 592.91 2430.57 586.37"/></g><circle class="az" cx="2426.65" cy="586.37" r="50.32"/><circle class="ap" cx="2650.15" cy="416.46" r="31.37"/><circle class="as" cx="2638.39" cy="596.83" r="36.6"/><circle class="aw" cx="2868.43" cy="535.4" r="30.72"/><circle class="ba" cx="2314.24" cy="515.79" r="18.3"/><circle class="an" cx="2787.39" cy="429.53" r="18.3"/></g><g><g id="af" class="ax"><polygon class="br" points="-278.61 -88.07 -453.76 34.79 -614.52 224.31 -604.07 502.72 -540.02 671.32 -417.16 704 -360.96 837.32 -217.18 842.55 -74.71 855.62 114.81 739.29 279.5 541.93 270.35 287.05 214.14 94.92 101.74 62.24 15.47 -60.62 -117.85 -64.54 -278.61 -88.07"/><polygon class="br" points="-551.79 247.84 -337.43 105.37 -453.76 34.79 -117.85 -64.54 -132.22 111.91 101.74 62.24 28.54 309.27 270.35 287.05 216.76 514.48 -45.96 570.68 114.81 739.29 -217.18 842.55 -248.55 621.66 -417.16 704 -478.59 513.17 -604.07 502.72 -551.79 247.84"/><polyline class="br" points="114.81 739.29 216.76 514.48 28.54 309.27 -45.96 570.68 -248.55 621.66 -478.59 513.17 -551.79 247.84 -364.88 262.22 -337.43 105.37 -117.85 -64.54 101.74 62.24 268.42 280.48"/><line class="br" x1="216.76" y1="514.48" x2="279.5" y2="541.93"/><polyline class="br" points="-132.22 111.91 -364.88 262.22 -248.55 621.66 28.54 309.27 -132.22 111.91 -337.43 105.37"/><line class="br" x1="28.54" y1="309.27" x2="-364.88" y2="262.22"/></g><circle class="ao" cx="100.43" cy="54.4" r="30.72"/><circle class="am" cx="28.54" cy="316.46" r="66.17"/><circle class="bb" cx="215.88" cy="97.01" r="18.3"/><circle class="bg" cx="279.5" cy="541.93" r="18.3"/><circle class="be" cx="206.3" cy="511.86" r="18.3"/><circle class="au" cx="268.33" cy="287.56" r="18.3"/></g><rect class="bu" x=".95" y="-.46" width="2922" height="611"/></svg>