<?xml version="1.0" standalone="no"?>
<!DOCTYPE svg PUBLIC "-//W3C//DTD SVG 20010904//EN"
 "http://www.w3.org/TR/2001/REC-SVG-20010904/DTD/svg10.dtd">
<svg version="1.0" xmlns="http://www.w3.org/2000/svg"
 width="700.000000pt" height="700.000000pt" viewBox="0 0 700.000000 700.000000"
 preserveAspectRatio="xMidYMid meet">
<metadata>
Created by potrace 1.14, written by Peter Selinger 2001-2017
</metadata>
<g transform="translate(0.000000,700.000000) scale(0.100000,-0.100000)"
fill="#000000" stroke="none">
<path d="M4395 6976 c256 -53 508 -138 695 -234 369 -188 436 -236 491 -347
35 -71 35 -83 -1 -177 -29 -78 -51 -103 -107 -119 -47 -14 -182 -16 -253 -5
-27 5 -19 -1 37 -28 132 -63 226 -136 320 -249 15 -18 37 -29 64 -33 49 -8 59
-27 30 -58 -29 -31 -27 -48 6 -44 21 2 34 14 51 46 29 51 54 67 83 52 30 -17
59 -70 59 -111 0 -44 -20 -71 -94 -129 -50 -38 -56 -46 -56 -79 0 -20 7 -45
16 -56 15 -20 25 -50 100 -298 87 -287 113 -454 92 -607 -22 -164 -18 -197 35
-303 26 -50 80 -138 120 -194 195 -277 245 -372 231 -438 -16 -75 -43 -96
-165 -129 -115 -32 -136 -82 -79 -191 52 -99 34 -152 -73 -214 l-52 -30 37
-15 c29 -12 42 -27 62 -72 16 -34 24 -65 20 -79 -3 -13 -35 -49 -71 -80 -72
-64 -74 -71 -38 -165 25 -67 2 -197 -48 -272 -29 -43 -106 -94 -170 -113 -63
-19 -183 -19 -245 -1 -77 23 -492 86 -562 86 -129 0 -209 -36 -311 -141 -114
-116 -205 -271 -255 -435 -25 -81 -28 -103 -28 -259 -1 -189 16 -272 60 -301
12 -8 230 -104 485 -213 574 -245 712 -311 857 -407 183 -122 385 -331 471
-486 l26 -48 383 0 382 0 0 3500 0 3500 -1357 -1 -1358 0 110 -23z"/>
<path d="M0 5475 l0 -1505 40 0 c51 0 140 -19 140 -30 0 -11 -24 -25 -81 -44
-57 -20 -80 -20 -73 -1 5 11 2 13 -10 9 -14 -5 -16 -25 -16 -131 l0 -125 33
22 c108 72 274 107 462 96 190 -11 470 -47 635 -82 146 -31 167 -38 185 -61
54 -71 56 -72 143 -82 45 -6 91 -15 102 -21 18 -10 20 -8 18 17 -3 49 8 56 75
49 65 -7 97 8 97 45 0 10 -34 57 -76 104 -41 47 -72 89 -69 95 4 6 42 -23 88
-66 106 -99 184 -150 253 -164 60 -13 104 -7 104 13 0 27 -76 137 -165 241
-58 67 -95 118 -95 132 0 12 -7 24 -15 28 -8 3 -15 17 -15 32 0 15 -6 32 -14
38 -25 18 -66 144 -66 199 0 28 -9 83 -20 121 -28 102 -128 620 -136 702 -8
89 13 178 65 281 56 111 193 344 248 422 50 70 148 171 192 197 18 10 33 34
45 67 36 104 171 295 265 376 31 26 119 95 196 153 77 58 172 134 210 168 75
67 183 144 253 179 23 12 42 24 42 26 0 3 -684 5 -1520 5 l-1520 0 0 -1505z"/>
<path d="M5470 4655 c-87 -16 -246 -69 -295 -100 -49 -30 -44 -30 53 -6 143
36 291 36 379 1 41 -17 4 -70 -87 -128 -30 -19 -68 -47 -85 -62 -16 -16 -39
-30 -50 -32 -11 -1 -28 -19 -38 -40 -18 -36 -21 -38 -69 -38 -35 0 -48 -4 -46
-12 8 -22 81 -58 120 -58 25 0 41 -6 50 -19 8 -11 23 -19 33 -18 16 2 20 -4
20 -33 0 -29 -5 -37 -30 -50 l-30 -15 43 -3 c54 -4 152 16 157 31 2 7 6 58 8
115 3 97 5 104 32 132 16 17 35 30 43 30 7 0 22 5 33 11 19 10 19 10 -1 36
l-21 27 44 45 c51 53 67 80 67 114 0 34 -13 42 -109 66 -92 23 -125 24 -221 6z"/>
<path d="M657 3669 c-107 -12 -307 -56 -489 -106 -158 -44 -168 -48 -168 -71
0 -19 3 -23 18 -16 9 4 91 26 182 49 91 23 222 59 292 79 70 21 167 46 215 56
92 19 68 23 -50 9z"/>
<path d="M2 3364 l3 -87 47 -14 c48 -14 73 -33 42 -33 -33 0 -5 -11 62 -26 74
-15 98 -29 69 -40 -11 -5 53 -28 186 -66 230 -67 354 -111 484 -173 113 -54
251 -143 239 -155 -16 -16 -228 -98 -332 -129 -173 -51 -422 -103 -469 -98
-32 3 -43 1 -43 -9 0 -9 -12 -14 -32 -14 -18 -1 -51 -8 -73 -16 -77 -29 -107
-33 -139 -19 -18 8 -24 14 -14 14 31 2 30 21 -1 21 l-31 0 0 -305 0 -305 23 0
c46 0 51 -16 13 -39 l-36 -23 0 -754 0 -754 103 86 c119 100 333 244 497 335
63 34 311 158 550 274 452 219 604 299 688 362 27 21 123 117 213 213 273 290
450 468 532 532 42 34 77 68 77 75 0 19 -6 17 -71 -29 -40 -28 -63 -38 -70
-31 -7 7 8 24 46 53 83 64 69 93 -32 72 -74 -15 -130 -45 -214 -113 -60 -49
-74 -57 -94 -49 -32 12 -118 -30 -253 -124 -135 -93 -219 -140 -224 -126 -2 7
-43 -5 -107 -31 l-104 -41 -196 -9 c-340 -14 -659 -96 -733 -188 -12 -16 -45
-43 -73 -60 -63 -40 -149 -111 -276 -228 -109 -101 -147 -120 -108 -55 13 20
40 62 60 93 21 31 35 59 32 63 -10 9 27 45 99 96 37 26 65 50 61 53 -3 4 0 13
7 21 6 9 10 21 8 28 -3 8 -28 -10 -65 -45 -35 -33 -69 -57 -81 -57 -28 0 -28
5 8 65 16 28 30 58 30 68 0 26 42 61 127 108 105 58 83 61 -27 3 -71 -37 -93
-45 -102 -36 -10 10 -6 18 17 37 17 13 38 24 48 25 10 0 55 22 100 50 148 90
317 139 652 190 372 57 478 84 583 151 238 150 308 212 363 321 49 98 38 113
-31 42 -140 -144 -389 -307 -559 -365 -82 -29 -199 -48 -391 -64 -96 -8 -186
-15 -200 -14 l-25 0 23 10 c13 5 34 22 48 39 14 16 34 30 44 30 10 0 23 7 30
15 7 8 21 15 31 15 11 0 19 5 19 11 0 7 -12 9 -32 5 -118 -22 -117 -22 -98 28
6 18 17 26 33 26 15 0 28 8 34 23 11 24 76 64 323 198 101 55 129 75 112 77
-43 6 -18 33 58 63 41 16 111 47 155 68 71 35 76 39 48 40 -43 1 -52 19 -15
33 22 8 32 21 38 47 7 26 15 37 32 39 24 4 29 17 10 26 -19 8 26 38 86 58 28
9 42 17 31 17 -11 1 -25 13 -32 28 -11 23 -10 32 12 69 23 39 75 199 75 230 0
23 -19 16 -62 -20 -139 -119 -536 -220 -644 -163 -17 9 -56 37 -85 62 -181
154 -656 285 -1037 285 l-103 0 3 -86z m433 -954 c49 -25 51 -41 5 -56 -38
-13 -232 -45 -238 -39 -11 10 12 45 36 55 81 35 138 58 147 59 6 0 29 -8 50
-19z"/>
</g>
</svg>
